<svg width="70" height="78" viewBox="0 0 70 78" fill="none" xmlns="http://www.w3.org/2000/svg">
<path d="M67.8125 15.5C57.6987 18.2125 45.8412 19.375 34.875 19.375C23.9088 19.375 12.0512 18.2125 1.9375 15.5L0 23.25C7.2075 25.1875 15.5 26.4662 23.25 27.125V77.5H31V54.25H38.75V77.5H46.5V27.125C54.25 26.4662 62.5425 25.1875 69.75 23.25L67.8125 15.5ZM34.875 15.5C39.1375 15.5 42.625 12.0125 42.625 7.75C42.625 3.4875 39.1375 0 34.875 0C30.6125 0 27.125 3.4875 27.125 7.75C27.125 12.0125 30.6125 15.5 34.875 15.5Z" fill="#233D4D"/>
</svg>
