<svg width="61" height="61" viewBox="0 0 61 61" fill="none" xmlns="http://www.w3.org/2000/svg">
<path d="M30.4696 0.0833359C13.6796 0.0833359 0.083374 13.71 0.083374 30.5C0.083374 47.29 13.6796 60.9167 30.4696 60.9167C47.29 60.9167 60.9167 47.29 60.9167 30.5C60.9167 13.71 47.29 0.0833359 30.4696 0.0833359ZM30.5 54.8333C17.0559 54.8333 6.16671 43.9442 6.16671 30.5C6.16671 17.0558 17.0559 6.16667 30.5 6.16667C43.9442 6.16667 54.8334 17.0558 54.8334 30.5C54.8334 43.9442 43.9442 54.8333 30.5 54.8333ZM15.2917 36.5833C17.6642 43.7008 23.565 48.75 30.5 48.75C37.435 48.75 43.3359 43.7008 45.7084 36.5833H15.2917Z" fill="#233D4D"/>
</svg>
