<svg width="73" height="18" viewBox="0 0 73 18" fill="none" xmlns="http://www.w3.org/2000/svg">
<path d="M10.1238 8.336C11.0998 8.576 11.8518 9.056 12.3798 9.776C12.9238 10.48 13.1958 11.36 13.1958 12.416C13.1958 13.904 12.7078 15.04 11.7318 15.824C10.7718 16.608 9.40378 17 7.62778 17H0.859781V0.079999H7.38778C9.11578 0.079999 10.4518 0.463999 11.3958 1.232C12.3398 2 12.8118 3.096 12.8118 4.52C12.8118 5.432 12.5718 6.216 12.0918 6.872C11.6278 7.528 10.9718 8.016 10.1238 8.336ZM2.32378 7.76H7.17178C8.53178 7.76 9.56378 7.48 10.2678 6.92C10.9718 6.36 11.3238 5.552 11.3238 4.496C11.3238 2.4 9.93978 1.352 7.17178 1.352H2.32378V7.76ZM7.53178 15.728C8.95578 15.728 10.0038 15.464 10.6758 14.936C11.3638 14.392 11.7078 13.568 11.7078 12.464C11.7078 10.192 10.3158 9.056 7.53178 9.056H2.32378V15.728H7.53178ZM26.2499 11.36H17.4419C17.4899 12.816 17.8739 13.936 18.5939 14.72C19.3139 15.488 20.3379 15.872 21.6659 15.872C23.0739 15.872 24.3459 15.392 25.4819 14.432L26.0579 15.584C25.5459 16.064 24.8899 16.448 24.0899 16.736C23.3059 17.024 22.4979 17.168 21.6659 17.168C19.8899 17.168 18.4899 16.632 17.4659 15.56C16.4419 14.488 15.9299 13.016 15.9299 11.144C15.9299 9.944 16.1539 8.888 16.6019 7.976C17.0659 7.048 17.7059 6.336 18.5219 5.84C19.3539 5.328 20.3059 5.072 21.3779 5.072C22.8979 5.072 24.0899 5.568 24.9539 6.56C25.8179 7.552 26.2499 8.936 26.2499 10.712V11.36ZM21.3779 6.272C20.2579 6.272 19.3619 6.624 18.6899 7.328C18.0179 8.032 17.6179 9.016 17.4899 10.28H24.9059C24.8739 9 24.5539 8.016 23.9459 7.328C23.3379 6.624 22.4819 6.272 21.3779 6.272ZM38.8827 11.36H30.0747C30.1227 12.816 30.5067 13.936 31.2267 14.72C31.9467 15.488 32.9707 15.872 34.2987 15.872C35.7067 15.872 36.9787 15.392 38.1147 14.432L38.6907 15.584C38.1787 16.064 37.5227 16.448 36.7227 16.736C35.9387 17.024 35.1307 17.168 34.2987 17.168C32.5227 17.168 31.1227 16.632 30.0987 15.56C29.0747 14.488 28.5627 13.016 28.5627 11.144C28.5627 9.944 28.7867 8.888 29.2347 7.976C29.6987 7.048 30.3387 6.336 31.1547 5.84C31.9867 5.328 32.9387 5.072 34.0107 5.072C35.5307 5.072 36.7227 5.568 37.5867 6.56C38.4507 7.552 38.8827 8.936 38.8827 10.712V11.36ZM34.0107 6.272C32.8907 6.272 31.9947 6.624 31.3227 7.328C30.6507 8.032 30.2507 9.016 30.1227 10.28H37.5387C37.5067 9 37.1867 8.016 36.5787 7.328C35.9707 6.624 35.1147 6.272 34.0107 6.272ZM54.5155 5.072C57.0915 5.072 58.3795 6.576 58.3795 9.584V17H56.9155V9.68C56.9155 8.512 56.7075 7.672 56.2915 7.16C55.8755 6.632 55.2115 6.368 54.2995 6.368C53.2595 6.368 52.4275 6.72 51.8035 7.424C51.1955 8.128 50.8915 9.08 50.8915 10.28V17H49.4275V9.68C49.4275 8.512 49.2195 7.672 48.8035 7.16C48.3875 6.632 47.7235 6.368 46.8115 6.368C45.7715 6.368 44.9395 6.72 44.3155 7.424C43.7075 8.128 43.4035 9.08 43.4035 10.28V17H41.9395V5.36H43.3795V7.28C43.7155 6.56 44.1955 6.016 44.8195 5.648C45.4595 5.264 46.1955 5.072 47.0275 5.072C48.8995 5.072 50.0915 5.84 50.6035 7.376C50.9395 6.656 51.4515 6.096 52.1395 5.696C52.8275 5.28 53.6195 5.072 54.5155 5.072ZM66.7981 17.168C65.7261 17.168 64.7821 16.92 63.9661 16.424C63.1661 15.928 62.5421 15.224 62.0941 14.312C61.6461 13.4 61.4221 12.336 61.4221 11.12C61.4221 9.904 61.6461 8.84 62.0941 7.928C62.5421 7.016 63.1661 6.312 63.9661 5.816C64.7821 5.32 65.7261 5.072 66.7981 5.072C67.8541 5.072 68.7901 5.32 69.6061 5.816C70.4221 6.312 71.0461 7.016 71.4781 7.928C71.9261 8.84 72.1501 9.904 72.1501 11.12C72.1501 12.336 71.9261 13.4 71.4781 14.312C71.0461 15.224 70.4221 15.928 69.6061 16.424C68.7901 16.92 67.8541 17.168 66.7981 17.168ZM66.7741 15.872C68.0061 15.872 68.9581 15.464 69.6301 14.648C70.3021 13.832 70.6381 12.656 70.6381 11.12C70.6381 9.616 70.2941 8.448 69.6061 7.616C68.9341 6.768 67.9981 6.344 66.7981 6.344C65.5821 6.344 64.6381 6.768 63.9661 7.616C63.2941 8.448 62.9581 9.616 62.9581 11.12C62.9581 12.656 63.2861 13.832 63.9421 14.648C64.5981 15.464 65.5421 15.872 66.7741 15.872Z" fill="#233D4D"/>
</svg>
