<svg width="72" height="18" viewBox="0 0 72 18" fill="none" xmlns="http://www.w3.org/2000/svg">
<path d="M9.62378 8.336C10.5998 8.576 11.3518 9.056 11.8798 9.776C12.4238 10.48 12.6958 11.36 12.6958 12.416C12.6958 13.904 12.2078 15.04 11.2318 15.824C10.2718 16.608 8.90378 17 7.12778 17H0.359781V0.079999H6.88778C8.61578 0.079999 9.95178 0.463999 10.8958 1.232C11.8398 2 12.3118 3.096 12.3118 4.52C12.3118 5.432 12.0718 6.216 11.5918 6.872C11.1278 7.528 10.4718 8.016 9.62378 8.336ZM1.82378 7.76H6.67178C8.03178 7.76 9.06378 7.48 9.76778 6.92C10.4718 6.36 10.8238 5.552 10.8238 4.496C10.8238 2.4 9.43978 1.352 6.67178 1.352H1.82378V7.76ZM7.03178 15.728C8.45578 15.728 9.50378 15.464 10.1758 14.936C10.8638 14.392 11.2078 13.568 11.2078 12.464C11.2078 10.192 9.81578 9.056 7.03178 9.056H1.82378V15.728H7.03178ZM25.7499 11.36H16.9419C16.9899 12.816 17.3739 13.936 18.0939 14.72C18.8139 15.488 19.8379 15.872 21.1659 15.872C22.5739 15.872 23.8459 15.392 24.9819 14.432L25.5579 15.584C25.0459 16.064 24.3899 16.448 23.5899 16.736C22.8059 17.024 21.9979 17.168 21.1659 17.168C19.3899 17.168 17.9899 16.632 16.9659 15.56C15.9419 14.488 15.4299 13.016 15.4299 11.144C15.4299 9.944 15.6539 8.888 16.1019 7.976C16.5659 7.048 17.2059 6.336 18.0219 5.84C18.8539 5.328 19.8059 5.072 20.8779 5.072C22.3979 5.072 23.5899 5.568 24.4539 6.56C25.3179 7.552 25.7499 8.936 25.7499 10.712V11.36ZM20.8779 6.272C19.7579 6.272 18.8619 6.624 18.1899 7.328C17.5179 8.032 17.1179 9.016 16.9899 10.28H24.4059C24.3739 9 24.0539 8.016 23.4459 7.328C22.8379 6.624 21.9819 6.272 20.8779 6.272ZM38.3827 11.36H29.5747C29.6227 12.816 30.0067 13.936 30.7267 14.72C31.4467 15.488 32.4707 15.872 33.7987 15.872C35.2067 15.872 36.4787 15.392 37.6147 14.432L38.1907 15.584C37.6787 16.064 37.0227 16.448 36.2227 16.736C35.4387 17.024 34.6307 17.168 33.7987 17.168C32.0227 17.168 30.6227 16.632 29.5987 15.56C28.5747 14.488 28.0627 13.016 28.0627 11.144C28.0627 9.944 28.2867 8.888 28.7347 7.976C29.1987 7.048 29.8387 6.336 30.6547 5.84C31.4867 5.328 32.4387 5.072 33.5107 5.072C35.0307 5.072 36.2227 5.568 37.0867 6.56C37.9507 7.552 38.3827 8.936 38.3827 10.712V11.36ZM33.5107 6.272C32.3907 6.272 31.4947 6.624 30.8227 7.328C30.1507 8.032 29.7507 9.016 29.6227 10.28H37.0387C37.0067 9 36.6867 8.016 36.0787 7.328C35.4707 6.624 34.6147 6.272 33.5107 6.272ZM54.0155 5.072C56.5915 5.072 57.8795 6.576 57.8795 9.584V17H56.4155V9.68C56.4155 8.512 56.2075 7.672 55.7915 7.16C55.3755 6.632 54.7115 6.368 53.7995 6.368C52.7595 6.368 51.9275 6.72 51.3035 7.424C50.6955 8.128 50.3915 9.08 50.3915 10.28V17H48.9275V9.68C48.9275 8.512 48.7195 7.672 48.3035 7.16C47.8875 6.632 47.2235 6.368 46.3115 6.368C45.2715 6.368 44.4395 6.72 43.8155 7.424C43.2075 8.128 42.9035 9.08 42.9035 10.28V17H41.4395V5.36H42.8795V7.28C43.2155 6.56 43.6955 6.016 44.3195 5.648C44.9595 5.264 45.6955 5.072 46.5275 5.072C48.3995 5.072 49.5915 5.84 50.1035 7.376C50.4395 6.656 50.9515 6.096 51.6395 5.696C52.3275 5.28 53.1195 5.072 54.0155 5.072ZM66.2981 17.168C65.2261 17.168 64.2821 16.92 63.4661 16.424C62.6661 15.928 62.0421 15.224 61.5941 14.312C61.1461 13.4 60.9221 12.336 60.9221 11.12C60.9221 9.904 61.1461 8.84 61.5941 7.928C62.0421 7.016 62.6661 6.312 63.4661 5.816C64.2821 5.32 65.2261 5.072 66.2981 5.072C67.3541 5.072 68.2901 5.32 69.1061 5.816C69.9221 6.312 70.5461 7.016 70.9781 7.928C71.4261 8.84 71.6501 9.904 71.6501 11.12C71.6501 12.336 71.4261 13.4 70.9781 14.312C70.5461 15.224 69.9221 15.928 69.1061 16.424C68.2901 16.92 67.3541 17.168 66.2981 17.168ZM66.2741 15.872C67.5061 15.872 68.4581 15.464 69.1301 14.648C69.8021 13.832 70.1381 12.656 70.1381 11.12C70.1381 9.616 69.7941 8.448 69.1061 7.616C68.4341 6.768 67.4981 6.344 66.2981 6.344C65.0821 6.344 64.1381 6.768 63.4661 7.616C62.7941 8.448 62.4581 9.616 62.4581 11.12C62.4581 12.656 62.7861 13.832 63.4421 14.648C64.0981 15.464 65.0421 15.872 66.2741 15.872Z" fill="white"/>
</svg>
