<svg id="svg" version="1.1" xmlns="http://www.w3.org/2000/svg" xmlns:xlink="http://www.w3.org/1999/xlink" width="48" height="48" viewBox="0, 0, 400,400"><g id="svgg"><path id="path0" d="M90.357 242.425 C 86.091 245.738,82.238 248.753,81.797 249.125 C 81.355 249.496,79.226 251.150,77.065 252.800 C 74.905 254.450,72.097 256.610,70.825 257.600 C 69.553 258.590,66.304 261.110,63.606 263.200 C 60.909 265.290,57.214 268.170,55.397 269.600 C 53.580 271.030,50.332 273.550,48.178 275.200 C 38.206 282.842,36.398 284.400,37.505 284.400 C 37.695 284.400,38.098 285.030,38.400 285.800 C 38.702 286.570,39.062 287.200,39.200 287.200 C 39.338 287.200,39.698 287.830,40.000 288.600 C 40.302 289.370,40.696 290.000,40.875 290.000 C 41.054 290.000,41.200 290.360,41.200 290.800 C 41.200 291.240,41.380 291.600,41.600 291.600 C 41.820 291.600,42.000 291.870,42.000 292.200 C 42.000 292.530,42.180 292.800,42.400 292.800 C 42.620 292.800,42.800 293.070,42.800 293.400 C 42.800 293.730,42.980 294.000,43.200 294.000 C 43.420 294.000,43.600 294.360,43.600 294.800 C 43.600 295.240,43.780 295.600,44.000 295.600 C 44.220 295.600,44.400 295.836,44.400 296.125 C 44.400 296.413,44.715 296.998,45.100 297.425 C 45.485 297.851,46.070 298.740,46.400 299.400 C 46.730 300.060,47.315 300.949,47.700 301.375 C 48.085 301.802,48.400 302.372,48.400 302.642 C 48.400 302.912,48.549 303.193,48.731 303.267 C 49.005 303.377,51.892 307.511,53.400 309.952 C 53.620 310.309,53.893 310.690,54.006 310.800 C 54.335 311.118,56.109 313.336,57.200 314.792 C 57.750 315.526,58.425 316.355,58.700 316.635 C 58.975 316.914,59.200 317.260,59.200 317.403 C 59.200 317.546,59.881 318.324,60.713 319.131 C 61.545 319.939,62.662 321.230,63.194 322.000 C 64.164 323.401,80.557 340.000,80.971 340.000 C 81.246 340.000,82.525 341.039,84.171 342.600 C 84.867 343.260,86.239 344.423,87.218 345.185 C 88.198 345.947,89.060 346.712,89.133 346.885 C 89.207 347.058,89.507 347.200,89.800 347.200 C 90.093 347.200,90.393 347.350,90.467 347.533 C 90.699 348.113,96.515 352.400,97.069 352.400 C 97.361 352.400,97.600 352.550,97.600 352.732 C 97.600 352.915,98.095 353.320,98.700 353.632 C 99.305 353.945,100.149 354.515,100.575 354.900 C 101.001 355.285,101.859 355.824,102.480 356.099 C 103.132 356.388,103.525 356.819,103.409 357.120 C 103.299 357.407,103.362 357.547,103.548 357.432 C 103.954 357.181,105.992 358.071,105.997 358.500 C 105.999 358.665,106.270 358.800,106.600 358.800 C 106.930 358.800,107.200 358.980,107.200 359.200 C 107.200 359.420,107.470 359.600,107.800 359.600 C 108.130 359.600,108.400 359.780,108.400 360.000 C 108.400 360.220,108.760 360.400,109.200 360.400 C 109.640 360.400,110.000 360.580,110.000 360.800 C 110.000 361.020,110.270 361.200,110.600 361.200 C 110.930 361.200,111.200 361.380,111.200 361.600 C 111.200 361.820,111.470 362.000,111.800 362.000 C 112.130 362.000,112.400 362.180,112.400 362.400 C 112.400 362.620,112.760 362.800,113.200 362.800 C 113.640 362.800,114.000 362.980,114.000 363.200 C 114.000 363.420,114.360 363.600,114.800 363.600 C 115.240 363.600,115.600 363.746,115.600 363.925 C 115.600 364.104,116.230 364.498,117.000 364.800 C 117.770 365.102,118.400 365.496,118.400 365.675 C 118.400 365.854,118.760 366.000,119.200 366.000 C 119.640 366.000,120.000 366.180,120.000 366.400 C 120.000 366.620,120.276 366.800,120.613 366.800 C 120.951 366.800,122.115 367.250,123.200 367.800 C 124.285 368.350,125.449 368.800,125.787 368.800 C 126.124 368.800,126.400 368.980,126.400 369.200 C 126.400 369.420,126.741 369.600,127.157 369.600 C 127.574 369.600,128.022 369.881,128.154 370.225 C 128.286 370.569,128.568 370.743,128.781 370.612 C 129.151 370.383,129.477 370.495,131.495 371.538 C 131.987 371.792,132.662 372.000,132.995 372.000 C 133.328 372.000,133.600 372.180,133.600 372.400 C 133.600 372.620,134.069 372.800,134.643 372.800 C 135.339 372.800,135.619 372.974,135.484 373.325 C 135.339 373.704,135.603 373.802,136.441 373.679 C 137.128 373.579,137.600 373.691,137.600 373.955 C 137.600 374.200,138.039 374.400,138.576 374.400 C 139.113 374.400,139.664 374.580,139.800 374.800 C 139.936 375.020,140.487 375.200,141.024 375.200 C 141.561 375.200,142.000 375.380,142.000 375.600 C 142.000 375.820,142.540 376.000,143.200 376.000 C 143.860 376.000,144.400 376.180,144.400 376.400 C 144.400 376.620,144.940 376.800,145.600 376.800 C 146.260 376.800,146.800 376.980,146.800 377.200 C 146.800 377.420,147.340 377.600,148.000 377.600 C 148.660 377.600,149.200 377.780,149.200 378.000 C 149.200 378.220,149.830 378.400,150.600 378.400 C 151.370 378.400,152.000 378.580,152.000 378.800 C 152.000 379.020,152.630 379.200,153.400 379.200 C 154.170 379.200,154.800 379.380,154.800 379.600 C 154.800 379.820,155.430 380.000,156.200 380.000 C 156.970 380.000,157.600 380.180,157.600 380.400 C 157.600 380.620,158.320 380.800,159.200 380.800 C 160.080 380.800,160.800 380.957,160.800 381.149 C 160.800 381.341,161.528 381.478,162.418 381.455 C 163.309 381.432,164.164 381.612,164.318 381.855 C 164.473 382.099,165.384 382.296,166.343 382.294 C 167.301 382.293,168.201 382.469,168.343 382.686 C 168.484 382.904,169.480 383.093,170.555 383.106 C 171.630 383.119,172.620 383.280,172.755 383.465 C 172.890 383.649,174.051 383.815,175.335 383.834 C 176.620 383.852,177.790 384.032,177.935 384.234 C 178.081 384.435,179.520 384.614,181.134 384.631 C 183.057 384.652,184.177 384.839,184.385 385.175 C 184.610 385.539,185.191 385.604,186.399 385.400 C 188.269 385.084,194.900 385.515,194.640 385.936 C 194.368 386.376,213.768 386.244,214.083 385.804 C 214.244 385.579,216.570 385.407,219.483 385.404 C 222.413 385.402,224.721 385.230,224.884 385.002 C 225.040 384.783,226.480 384.603,228.084 384.602 C 229.688 384.601,231.128 384.420,231.285 384.200 C 231.442 383.980,232.702 383.800,234.085 383.800 C 235.468 383.800,236.719 383.635,236.865 383.433 C 237.010 383.232,238.000 383.069,239.065 383.073 C 240.129 383.076,241.107 382.915,241.239 382.715 C 241.370 382.515,242.246 382.341,243.185 382.328 C 244.124 382.315,245.367 382.055,245.946 381.749 C 246.541 381.436,247.479 381.297,248.100 381.429 C 248.766 381.571,249.200 381.493,249.200 381.232 C 249.200 380.994,249.920 380.800,250.800 380.800 C 251.680 380.800,252.400 380.620,252.400 380.400 C 252.400 380.180,253.120 380.000,254.000 380.000 C 254.880 380.000,255.600 379.820,255.600 379.600 C 255.600 379.380,256.230 379.200,257.000 379.200 C 257.770 379.200,258.400 379.020,258.400 378.800 C 258.400 378.580,259.030 378.400,259.800 378.400 C 260.570 378.400,261.200 378.220,261.200 378.000 C 261.200 377.780,261.830 377.600,262.600 377.600 C 263.370 377.600,264.000 377.420,264.000 377.200 C 264.000 376.980,264.540 376.800,265.200 376.800 C 265.860 376.800,266.400 376.620,266.400 376.400 C 266.400 376.180,266.940 376.000,267.600 376.000 C 268.260 376.000,268.800 375.820,268.800 375.600 C 268.800 375.380,269.250 375.200,269.800 375.200 C 270.350 375.200,270.800 375.020,270.800 374.800 C 270.800 374.580,271.162 374.400,271.605 374.400 C 272.048 374.400,272.723 374.241,273.105 374.047 C 275.223 372.969,276.008 372.718,276.573 372.934 C 276.967 373.085,277.200 372.957,277.200 372.587 C 277.200 372.264,277.472 372.000,277.805 372.000 C 278.138 372.000,278.723 371.840,279.105 371.644 C 280.003 371.184,282.960 369.866,285.000 369.018 C 285.880 368.652,287.292 368.003,288.138 367.576 C 288.984 367.149,289.929 366.800,290.238 366.800 C 290.547 366.800,290.800 366.654,290.800 366.475 C 290.800 366.296,291.430 365.902,292.200 365.600 C 292.970 365.298,293.600 364.904,293.600 364.725 C 293.600 364.546,293.960 364.400,294.400 364.400 C 294.840 364.400,295.200 364.254,295.200 364.075 C 295.200 363.896,295.830 363.502,296.600 363.200 C 297.370 362.898,298.000 362.538,298.000 362.400 C 298.000 362.262,298.630 361.902,299.400 361.600 C 300.170 361.298,300.800 360.904,300.800 360.725 C 300.800 360.546,301.070 360.400,301.400 360.400 C 301.730 360.400,302.000 360.220,302.000 360.000 C 302.000 359.780,302.270 359.600,302.600 359.600 C 302.930 359.600,303.200 359.420,303.200 359.200 C 303.200 358.980,303.436 358.800,303.725 358.800 C 304.013 358.800,304.636 358.440,305.108 358.000 C 305.580 357.560,306.204 357.200,306.495 357.200 C 306.786 357.200,307.283 356.840,307.600 356.400 C 307.917 355.960,308.373 355.600,308.613 355.600 C 308.853 355.600,309.398 355.276,309.825 354.880 C 310.251 354.484,310.870 354.034,311.200 353.880 C 311.530 353.726,312.610 352.971,313.600 352.202 C 314.590 351.433,316.030 350.376,316.800 349.852 C 317.570 349.328,318.744 348.382,319.409 347.750 C 320.074 347.117,321.244 346.119,322.009 345.530 C 323.723 344.212,326.800 341.363,326.800 341.095 C 326.800 340.986,325.769 340.110,324.508 339.149 C 323.247 338.187,320.849 336.320,319.178 335.000 C 317.507 333.680,315.613 332.202,314.970 331.715 C 314.326 331.228,311.820 329.281,309.400 327.389 C 306.980 325.497,303.920 323.120,302.600 322.107 C 298.047 318.614,296.999 317.799,296.800 317.599 C 296.690 317.488,295.524 316.588,294.209 315.599 C 292.894 314.610,291.544 313.578,291.209 313.306 C 290.602 312.813,277.728 302.809,271.119 297.694 C 269.204 296.212,267.629 294.770,267.619 294.488 C 267.608 294.195,266.355 294.810,264.700 295.920 C 263.105 296.990,261.215 298.119,260.500 298.430 C 259.785 298.741,259.200 299.131,259.200 299.298 C 259.200 299.464,258.840 299.600,258.400 299.600 C 257.960 299.600,257.600 299.780,257.600 300.000 C 257.600 300.220,257.240 300.400,256.800 300.400 C 256.360 300.400,256.000 300.580,256.000 300.800 C 256.000 301.020,255.640 301.200,255.200 301.200 C 254.760 301.200,254.400 301.380,254.400 301.600 C 254.400 301.820,254.040 302.000,253.600 302.000 C 253.160 302.000,252.800 302.180,252.800 302.400 C 252.800 302.620,252.440 302.800,252.000 302.800 C 251.560 302.800,251.200 302.980,251.200 303.200 C 251.200 303.420,250.750 303.600,250.200 303.600 C 249.650 303.600,249.200 303.780,249.200 304.000 C 249.200 304.220,248.750 304.400,248.200 304.400 C 247.650 304.400,247.200 304.580,247.200 304.800 C 247.200 305.020,246.750 305.200,246.200 305.200 C 245.650 305.200,245.200 305.380,245.200 305.600 C 245.200 305.820,244.660 306.000,244.000 306.000 C 243.340 306.000,242.800 306.180,242.800 306.400 C 242.800 306.620,242.260 306.800,241.600 306.800 C 240.940 306.800,240.400 306.980,240.400 307.200 C 240.400 307.420,239.860 307.600,239.200 307.600 C 238.540 307.600,238.000 307.780,238.000 308.000 C 238.000 308.220,237.280 308.400,236.400 308.400 C 235.520 308.400,234.800 308.580,234.800 308.800 C 234.800 309.020,234.080 309.200,233.200 309.200 C 232.320 309.200,231.600 309.364,231.600 309.564 C 231.600 309.764,230.025 310.056,228.100 310.212 C 226.175 310.368,224.420 310.637,224.200 310.811 C 222.860 311.868,204.439 312.681,196.200 312.046 C 188.131 311.424,185.852 311.162,185.400 310.805 C 185.180 310.631,183.515 310.360,181.700 310.203 C 179.885 310.045,178.400 309.755,178.400 309.558 C 178.400 309.361,177.680 309.200,176.800 309.200 C 175.920 309.200,175.200 309.020,175.200 308.800 C 175.200 308.580,174.660 308.400,174.000 308.400 C 173.340 308.400,172.800 308.220,172.800 308.000 C 172.800 307.780,172.260 307.600,171.600 307.600 C 170.940 307.600,170.400 307.420,170.400 307.200 C 170.400 306.980,169.961 306.800,169.424 306.800 C 168.887 306.800,168.336 306.620,168.200 306.400 C 168.064 306.180,167.513 306.000,166.976 306.000 C 166.439 306.000,166.000 305.820,166.000 305.600 C 166.000 305.380,165.561 305.200,165.024 305.200 C 164.487 305.200,163.936 305.020,163.800 304.800 C 163.664 304.580,163.203 304.400,162.776 304.400 C 162.349 304.400,162.000 304.220,162.000 304.000 C 162.000 303.780,161.640 303.600,161.200 303.600 C 160.760 303.600,160.400 303.420,160.400 303.200 C 160.400 302.980,160.051 302.800,159.624 302.800 C 159.197 302.800,158.736 302.620,158.600 302.400 C 158.464 302.180,158.003 302.000,157.576 302.000 C 157.149 302.000,156.800 301.820,156.800 301.600 C 156.800 301.380,156.455 301.200,156.033 301.200 C 155.612 301.200,155.207 301.065,155.133 300.900 C 154.966 300.524,152.836 299.225,151.900 298.929 C 151.515 298.807,151.200 298.548,151.200 298.353 C 151.200 298.159,150.840 298.000,150.400 298.000 C 149.960 298.000,149.600 297.820,149.600 297.600 C 149.600 297.380,149.240 297.200,148.800 297.200 C 148.360 297.200,148.000 297.042,148.000 296.849 C 148.000 296.655,147.460 296.273,146.800 296.000 C 146.140 295.727,145.600 295.372,145.600 295.212 C 145.600 295.052,144.880 294.597,144.000 294.200 C 143.120 293.803,142.400 293.326,142.400 293.139 C 142.400 292.953,142.130 292.800,141.800 292.800 C 141.470 292.800,141.200 292.659,141.200 292.486 C 141.200 292.314,140.692 291.873,140.072 291.506 C 139.452 291.140,138.247 290.201,137.394 289.420 C 136.541 288.639,135.687 288.000,135.496 288.000 C 135.305 288.000,134.305 287.143,133.274 286.097 C 132.243 285.050,130.590 283.567,129.600 282.802 C 127.736 281.361,125.868 279.477,123.800 276.951 C 123.140 276.144,121.745 274.599,120.700 273.516 C 119.655 272.433,118.800 271.406,118.800 271.235 C 118.800 270.690,117.330 269.203,117.059 269.474 C 116.917 269.617,116.800 269.433,116.800 269.067 C 116.800 268.700,116.620 268.400,116.400 268.400 C 116.180 268.400,116.000 268.080,116.000 267.688 C 116.000 267.297,115.640 266.717,115.200 266.400 C 114.760 266.083,114.400 265.593,114.400 265.312 C 114.400 265.030,114.220 264.800,114.000 264.800 C 113.780 264.800,113.600 264.530,113.600 264.200 C 113.600 263.870,113.450 263.600,113.268 263.600 C 113.085 263.600,112.680 263.108,112.368 262.506 C 111.561 260.951,110.705 260.000,110.111 260.000 C 109.829 260.000,109.600 259.540,109.600 258.971 C 109.600 258.406,109.330 257.673,109.000 257.343 C 108.670 257.013,108.397 256.351,108.394 255.871 C 108.389 255.162,108.316 255.112,108.000 255.600 C 107.700 256.064,107.611 255.938,107.606 255.047 C 107.603 254.413,107.285 253.603,106.900 253.247 C 106.515 252.891,106.149 252.330,106.087 252.000 C 105.826 250.624,103.461 246.439,103.077 246.676 C 102.823 246.833,102.764 246.670,102.925 246.250 C 103.087 245.829,102.961 245.483,102.593 245.342 C 102.267 245.217,102.000 244.943,102.000 244.734 C 102.000 244.524,102.180 244.464,102.400 244.600 C 102.620 244.736,102.800 244.669,102.800 244.451 C 102.800 244.232,102.440 243.940,102.000 243.800 C 101.435 243.621,101.200 243.195,101.200 242.349 C 101.200 241.654,101.033 241.256,100.800 241.400 C 100.573 241.540,100.400 241.204,100.400 240.624 C 100.400 240.061,100.220 239.600,100.000 239.600 C 99.780 239.600,99.600 239.137,99.600 238.571 C 99.600 237.687,98.821 236.400,98.286 236.400 C 98.191 236.400,94.623 239.111,90.357 242.425 " stroke="none" fill="#34ac54" fill-rule="evenodd"></path><path id="path1" d="M203.600 198.176 C 203.600 220.263,203.462 232.038,203.200 232.200 C 202.644 232.544,202.699 234.539,203.280 235.120 C 203.653 235.493,203.653 235.600,203.280 235.600 C 202.569 235.600,202.697 237.075,203.433 237.357 C 203.781 237.491,226.641 237.600,254.233 237.600 C 298.559 237.600,304.400 237.670,304.400 238.200 C 304.400 238.530,304.220 238.800,304.000 238.800 C 303.780 238.800,303.600 239.700,303.600 240.800 C 303.600 241.900,303.420 242.800,303.200 242.800 C 302.980 242.800,302.800 243.430,302.800 244.200 C 302.800 244.970,302.620 245.600,302.400 245.600 C 302.180 245.600,302.000 246.129,302.000 246.776 C 302.000 247.423,301.820 248.064,301.600 248.200 C 301.380 248.336,301.200 248.876,301.200 249.400 C 301.200 249.924,301.020 250.464,300.800 250.600 C 300.580 250.736,300.400 251.199,300.400 251.629 C 300.400 252.384,300.256 252.774,299.262 254.695 C 299.008 255.187,298.800 255.862,298.800 256.195 C 298.800 256.528,298.620 256.800,298.400 256.800 C 298.180 256.800,298.000 257.160,298.000 257.600 C 298.000 258.040,297.820 258.400,297.600 258.400 C 297.380 258.400,297.200 258.665,297.200 258.988 C 297.200 259.311,296.835 260.225,296.390 261.018 C 295.944 261.812,294.909 263.752,294.090 265.330 C 293.270 266.909,292.465 268.260,292.300 268.333 C 292.135 268.407,292.000 268.772,292.000 269.145 C 292.000 269.518,291.640 270.083,291.200 270.400 C 290.760 270.717,290.400 271.225,290.400 271.528 C 290.400 271.831,289.860 272.583,289.200 273.200 C 288.540 273.817,288.000 274.516,288.000 274.754 C 288.000 275.218,287.143 276.185,281.119 282.519 C 275.118 288.828,274.332 289.600,273.912 289.600 C 273.697 289.600,273.017 290.140,272.400 290.800 C 271.783 291.460,271.126 292.000,270.940 292.000 C 270.753 292.001,270.077 292.451,269.438 293.000 C 268.799 293.550,268.124 294.000,267.938 294.000 C 266.908 294.000,268.032 295.305,271.119 297.694 C 277.728 302.809,290.602 312.813,291.209 313.306 C 291.544 313.578,292.894 314.610,294.209 315.599 C 295.524 316.588,296.690 317.488,296.800 317.599 C 296.999 317.799,298.047 318.614,302.600 322.107 C 303.920 323.120,306.980 325.497,309.400 327.389 C 311.820 329.281,314.326 331.228,314.970 331.715 C 315.613 332.202,317.507 333.680,319.178 335.000 C 324.182 338.954,326.658 340.800,326.954 340.800 C 327.840 340.800,338.989 329.426,341.083 326.386 C 341.457 325.844,342.266 324.923,342.881 324.340 C 343.497 323.756,344.000 323.081,344.000 322.840 C 344.000 322.598,344.180 322.400,344.400 322.400 C 344.620 322.400,344.800 322.218,344.800 321.996 C 344.800 321.774,345.340 321.028,346.000 320.337 C 346.660 319.646,347.200 318.878,347.200 318.629 C 347.200 318.380,347.560 317.917,348.000 317.600 C 348.440 317.283,348.800 316.793,348.800 316.512 C 348.800 316.230,348.980 316.000,349.200 316.000 C 349.420 316.000,349.600 315.807,349.600 315.571 C 349.600 314.862,350.760 313.928,351.259 314.236 C 351.561 314.423,351.615 314.348,351.415 314.024 C 350.969 313.303,352.021 311.523,352.732 311.795 C 353.212 311.980,353.225 311.912,352.803 311.404 C 352.378 310.892,352.456 310.639,353.275 309.880 C 353.815 309.380,354.184 308.752,354.095 308.485 C 354.006 308.218,354.128 308.000,354.367 308.000 C 354.605 308.000,354.800 307.764,354.800 307.475 C 354.800 307.187,355.160 306.564,355.600 306.092 C 356.040 305.620,356.400 304.956,356.400 304.617 C 356.400 304.278,356.580 304.000,356.800 304.000 C 357.020 304.000,357.200 303.730,357.200 303.400 C 357.200 303.070,357.380 302.800,357.600 302.800 C 357.820 302.800,358.000 302.530,358.000 302.200 C 358.000 301.870,358.180 301.600,358.400 301.600 C 358.620 301.600,358.800 301.221,358.800 300.757 C 358.800 300.216,358.992 299.988,359.338 300.121 C 359.723 300.268,359.823 300.054,359.691 299.363 C 359.585 298.811,359.697 298.400,359.953 298.400 C 360.199 298.400,360.400 298.130,360.400 297.800 C 360.400 297.470,360.580 297.200,360.800 297.200 C 361.020 297.200,361.200 296.840,361.200 296.400 C 361.200 295.960,361.380 295.600,361.600 295.600 C 361.820 295.600,362.000 295.240,362.000 294.800 C 362.000 294.360,362.180 294.000,362.400 294.000 C 362.620 294.000,362.800 293.640,362.800 293.200 C 362.800 292.760,362.980 292.400,363.200 292.400 C 363.420 292.400,363.600 292.040,363.600 291.600 C 363.600 291.160,363.780 290.800,364.000 290.800 C 364.220 290.800,364.400 290.440,364.400 290.000 C 364.400 289.560,364.580 289.200,364.800 289.200 C 365.020 289.200,365.200 288.840,365.200 288.400 C 365.200 287.960,365.380 287.600,365.600 287.600 C 365.820 287.600,366.000 287.150,366.000 286.600 C 366.000 286.050,366.180 285.600,366.400 285.600 C 366.620 285.600,366.800 285.240,366.800 284.800 C 366.800 284.360,366.980 284.000,367.200 284.000 C 367.420 284.000,367.600 283.550,367.600 283.000 C 367.600 282.450,367.780 282.000,368.000 282.000 C 368.220 282.000,368.400 281.550,368.400 281.000 C 368.400 280.450,368.601 280.000,368.847 280.000 C 369.101 280.000,369.200 279.645,369.078 279.176 C 368.943 278.661,369.085 278.266,369.454 278.124 C 369.780 277.999,369.953 277.655,369.840 277.360 C 369.727 277.065,369.914 276.543,370.256 276.201 C 370.598 275.859,370.773 275.307,370.646 274.975 C 370.515 274.634,370.676 274.269,371.015 274.139 C 371.384 273.997,371.574 273.501,371.508 272.854 C 371.439 272.180,371.581 271.836,371.902 271.901 C 372.237 271.968,372.370 271.570,372.302 270.701 C 372.244 269.968,372.382 269.432,372.616 269.472 C 372.863 269.515,372.968 268.985,372.873 268.172 C 372.754 267.153,372.865 266.800,373.307 266.800 C 373.634 266.800,374.130 266.526,374.408 266.191 C 374.830 265.682,374.806 265.623,374.257 265.834 C 373.776 266.018,373.600 265.860,373.600 265.243 C 373.600 264.319,374.199 264.106,374.562 264.900 C 374.687 265.175,374.686 264.632,374.559 263.693 C 374.362 262.241,374.467 261.864,375.264 261.163 C 375.779 260.710,375.975 260.453,375.700 260.593 C 375.354 260.769,375.200 260.471,375.200 259.624 C 375.200 258.951,375.380 258.400,375.600 258.400 C 375.820 258.400,376.000 257.680,376.000 256.800 C 376.000 255.920,376.180 255.200,376.400 255.200 C 376.620 255.200,376.800 254.480,376.800 253.600 C 376.800 252.720,376.980 252.000,377.200 252.000 C 377.420 252.000,377.600 251.190,377.600 250.200 C 377.600 249.210,377.780 248.400,378.000 248.400 C 378.220 248.400,378.400 247.399,378.400 246.176 C 378.400 244.796,378.552 244.047,378.800 244.200 C 379.050 244.355,379.200 243.530,379.200 242.000 C 379.200 240.470,379.350 239.645,379.600 239.800 C 379.852 239.956,380.000 239.004,380.000 237.224 C 380.000 235.608,380.171 234.400,380.400 234.400 C 380.633 234.400,380.800 233.067,380.800 231.200 C 380.800 229.333,380.967 228.000,381.200 228.000 C 381.442 228.000,381.600 226.275,381.600 223.624 C 381.600 221.137,381.773 219.140,382.000 219.000 C 382.255 218.843,382.400 213.463,382.400 204.176 C 382.400 194.725,382.259 189.600,382.000 189.600 C 381.756 189.600,381.600 187.792,381.600 184.976 C 381.600 181.996,381.458 180.441,381.200 180.600 C 380.956 180.751,380.800 180.149,380.800 179.057 C 380.800 178.016,381.009 177.169,381.300 177.033 C 381.700 176.847,381.700 176.753,381.300 176.567 C 381.025 176.438,380.800 175.798,380.800 175.143 C 380.800 174.451,380.632 174.056,380.400 174.200 C 380.148 174.356,380.000 173.404,380.000 171.624 C 380.000 170.008,379.829 168.800,379.600 168.800 C 379.018 168.800,379.109 166.503,379.700 166.265 C 380.100 166.104,380.100 166.057,379.700 166.032 C 379.425 166.014,379.200 165.640,379.200 165.200 C 379.200 164.402,378.933 164.400,291.400 164.400 L 203.600 164.400 203.600 198.176 M202.909 227.200 C 202.909 228.190,202.987 228.595,203.082 228.100 C 203.178 227.605,203.178 226.795,203.082 226.300 C 202.987 225.805,202.909 226.210,202.909 227.200 " stroke="none" fill="#4484f3" fill-rule="evenodd"></path><path id="path2" d="M36.900 116.665 C 36.625 116.776,36.400 117.212,36.400 117.633 C 36.400 118.055,36.220 118.400,36.000 118.400 C 35.780 118.400,35.600 118.760,35.600 119.200 C 35.600 119.640,35.420 120.000,35.200 120.000 C 34.980 120.000,34.800 120.320,34.800 120.712 C 34.800 121.103,34.444 121.680,34.009 121.994 C 33.427 122.413,33.348 122.646,33.709 122.876 C 34.094 123.121,34.092 123.189,33.700 123.194 C 33.425 123.197,33.200 123.571,33.200 124.024 C 33.200 124.477,33.020 124.736,32.800 124.600 C 32.560 124.452,32.398 124.964,32.394 125.876 C 32.389 127.007,32.288 127.245,32.000 126.800 C 31.707 126.346,31.611 126.522,31.606 127.524 C 31.603 128.303,31.436 128.746,31.200 128.600 C 30.972 128.459,30.800 128.804,30.800 129.400 C 30.800 129.996,30.628 130.341,30.400 130.200 C 30.180 130.064,30.000 130.323,30.000 130.776 C 30.000 131.229,29.820 131.600,29.600 131.600 C 29.380 131.600,29.200 132.331,29.200 133.224 C 29.200 134.204,29.042 134.749,28.800 134.600 C 28.567 134.456,28.400 134.863,28.400 135.576 C 28.400 136.249,28.233 136.800,28.029 136.800 C 27.825 136.800,27.534 137.790,27.383 139.000 C 27.232 140.210,26.949 141.200,26.754 141.200 C 26.559 141.200,26.400 141.740,26.400 142.400 C 26.400 143.060,26.220 143.600,26.000 143.600 C 25.780 143.600,25.600 144.230,25.600 145.000 C 25.600 145.770,25.420 146.400,25.200 146.400 C 24.980 146.400,24.800 147.030,24.800 147.800 C 24.800 148.570,24.620 149.200,24.400 149.200 C 24.180 149.200,24.000 149.830,24.000 150.600 C 24.000 151.370,23.820 152.000,23.600 152.000 C 23.380 152.000,23.200 152.619,23.200 153.376 C 23.200 154.133,23.020 154.864,22.800 155.000 C 22.580 155.136,22.400 155.957,22.400 156.824 C 22.400 157.691,22.220 158.400,22.000 158.400 C 21.780 158.400,21.600 159.221,21.600 160.224 C 21.600 161.337,21.444 161.951,21.200 161.800 C 20.953 161.648,20.800 162.329,20.800 163.576 C 20.800 164.689,20.620 165.600,20.400 165.600 C 20.177 165.600,20.000 166.675,20.000 168.024 C 20.000 169.537,19.850 170.354,19.600 170.200 C 19.348 170.044,19.200 171.004,19.200 172.800 C 19.200 174.596,19.052 175.556,18.800 175.400 C 18.545 175.242,18.400 176.470,18.400 178.800 C 18.400 181.130,18.255 182.358,18.000 182.200 C 17.739 182.039,17.600 184.455,17.600 189.153 C 17.600 193.521,17.443 196.450,17.200 196.600 C 16.676 196.924,16.676 202.000,17.200 202.000 C 17.452 202.000,17.600 204.733,17.600 209.400 C 17.600 214.067,17.748 216.800,18.000 216.800 C 18.237 216.800,18.400 218.275,18.400 220.424 C 18.400 222.737,18.545 223.958,18.800 223.800 C 19.052 223.644,19.200 224.596,19.200 226.376 C 19.200 227.992,19.371 229.200,19.600 229.200 C 19.820 229.200,20.000 230.190,20.000 231.400 C 20.000 232.610,20.180 233.600,20.400 233.600 C 20.620 233.600,20.800 234.500,20.800 235.600 C 20.800 236.700,20.980 237.600,21.200 237.600 C 21.420 237.600,21.600 238.410,21.600 239.400 C 21.600 240.390,21.780 241.200,22.000 241.200 C 22.220 241.200,22.400 241.920,22.400 242.800 C 22.400 243.680,22.580 244.400,22.800 244.400 C 23.020 244.400,23.200 245.120,23.200 246.000 C 23.200 246.880,23.380 247.600,23.600 247.600 C 23.820 247.600,24.000 248.230,24.000 249.000 C 24.000 249.770,24.180 250.400,24.400 250.400 C 24.620 250.400,24.800 250.940,24.800 251.600 C 24.800 252.260,24.980 252.800,25.200 252.800 C 25.420 252.800,25.600 253.430,25.600 254.200 C 25.600 254.970,25.780 255.600,26.000 255.600 C 26.220 255.600,26.400 256.140,26.400 256.800 C 26.400 257.460,26.580 258.000,26.800 258.000 C 27.020 258.000,27.200 258.540,27.200 259.200 C 27.200 259.860,27.402 260.400,27.650 260.400 C 27.935 260.400,28.013 260.833,27.864 261.582 C 27.669 262.555,27.741 262.721,28.268 262.518 C 28.792 262.317,28.876 262.499,28.728 263.512 C 28.618 264.261,28.715 264.722,28.973 264.676 C 29.208 264.634,29.457 265.095,29.527 265.700 C 29.596 266.305,29.842 266.800,30.073 266.800 C 30.306 266.800,30.408 267.247,30.302 267.800 C 30.174 268.471,30.290 268.800,30.655 268.800 C 30.955 268.800,31.200 269.065,31.200 269.388 C 31.200 269.712,31.650 270.960,32.200 272.163 C 32.750 273.365,33.200 274.482,33.200 274.645 C 33.200 275.128,36.821 282.155,37.356 282.709 C 37.750 283.118,38.479 282.723,41.055 280.709 C 42.820 279.329,46.025 276.850,48.178 275.200 C 50.332 273.550,53.580 271.030,55.397 269.600 C 57.214 268.170,60.909 265.290,63.606 263.200 C 66.304 261.110,69.553 258.590,70.825 257.600 C 72.097 256.610,74.907 254.453,77.069 252.807 C 79.231 251.161,81.090 249.714,81.200 249.592 C 81.901 248.810,97.798 236.693,98.605 236.325 C 99.667 235.841,99.794 235.584,99.270 234.980 C 99.088 234.771,98.710 233.790,98.431 232.800 C 98.151 231.810,97.760 230.687,97.561 230.305 C 97.362 229.923,97.200 229.068,97.200 228.405 C 97.200 227.742,97.020 227.200,96.800 227.200 C 96.580 227.200,96.400 226.581,96.400 225.824 C 96.400 225.067,96.220 224.336,96.000 224.200 C 95.780 224.064,95.600 223.189,95.600 222.256 C 95.600 221.323,95.437 220.389,95.237 220.180 C 94.849 219.774,94.498 217.254,94.153 212.400 C 94.036 210.750,93.773 209.229,93.570 209.020 C 93.058 208.495,93.087 191.317,93.600 191.000 C 93.820 190.864,94.000 189.334,94.000 187.600 C 94.000 185.866,94.180 184.336,94.400 184.200 C 94.620 184.064,94.800 183.074,94.800 182.000 C 94.800 180.926,94.980 179.936,95.200 179.800 C 95.420 179.664,95.600 178.753,95.600 177.776 C 95.600 176.799,95.780 176.000,96.000 176.000 C 96.220 176.000,96.400 175.291,96.400 174.424 C 96.400 173.557,96.580 172.736,96.800 172.600 C 97.020 172.464,97.200 171.823,97.200 171.176 C 97.200 170.529,97.380 170.000,97.600 170.000 C 97.820 170.000,98.000 169.280,98.000 168.400 C 98.000 167.520,98.180 166.800,98.400 166.800 C 98.620 166.800,98.800 166.260,98.800 165.600 C 98.800 164.940,98.980 164.400,99.200 164.400 C 99.949 164.400,99.603 163.655,98.725 163.376 C 98.244 163.224,96.489 162.038,94.825 160.741 C 93.161 159.445,90.118 157.083,88.062 155.492 C 86.007 153.901,82.375 151.070,79.993 149.200 C 77.611 147.330,72.383 143.280,68.377 140.200 C 64.370 137.120,59.721 133.515,58.046 132.188 C 56.371 130.862,53.650 128.760,52.000 127.517 C 48.708 125.037,40.898 118.959,39.000 117.400 C 37.735 116.361,37.691 116.346,36.900 116.665 " stroke="none" fill="#fbbc06" fill-rule="evenodd"></path><path id="path3" d="M200.200 13.195 C 199.540 13.393,196.120 13.648,192.600 13.761 C 186.462 13.959,182.926 14.273,176.400 15.201 C 174.750 15.435,172.455 15.728,171.300 15.850 C 170.145 15.973,169.200 16.237,169.200 16.437 C 169.200 16.637,168.300 16.800,167.200 16.800 C 166.100 16.800,165.200 16.980,165.200 17.200 C 165.200 17.420,164.401 17.600,163.424 17.600 C 162.447 17.600,161.536 17.780,161.400 18.000 C 161.264 18.220,160.533 18.400,159.776 18.400 C 159.019 18.400,158.400 18.580,158.400 18.800 C 158.400 19.020,157.695 19.200,156.833 19.200 C 155.972 19.200,155.207 19.372,155.133 19.582 C 155.060 19.793,154.337 20.009,153.526 20.063 C 152.715 20.116,152.141 20.304,152.249 20.480 C 152.358 20.656,151.807 20.800,151.024 20.800 C 150.241 20.800,149.600 20.980,149.600 21.200 C 149.600 21.420,149.060 21.600,148.400 21.600 C 147.740 21.600,147.200 21.780,147.200 22.000 C 147.200 22.220,146.761 22.400,146.224 22.400 C 145.687 22.400,145.136 22.580,145.000 22.800 C 144.864 23.020,144.234 23.200,143.600 23.200 C 142.966 23.200,142.336 23.380,142.200 23.600 C 142.064 23.820,141.603 24.000,141.176 24.000 C 140.749 24.000,140.400 24.180,140.400 24.400 C 140.400 24.620,139.860 24.800,139.200 24.800 C 138.540 24.800,138.000 24.980,138.000 25.200 C 138.000 25.420,137.460 25.600,136.800 25.600 C 136.140 25.600,135.600 25.780,135.600 26.000 C 135.600 26.220,135.240 26.400,134.800 26.400 C 134.360 26.400,134.000 26.557,134.000 26.749 C 134.000 26.941,133.282 27.213,132.405 27.353 C 131.528 27.493,130.173 27.966,129.393 28.404 C 128.614 28.842,127.701 29.200,127.364 29.200 C 127.028 29.200,126.845 29.350,126.958 29.533 C 127.071 29.716,126.272 30.108,125.182 30.405 C 124.092 30.702,123.200 31.092,123.200 31.272 C 123.200 31.453,122.840 31.600,122.400 31.600 C 121.960 31.600,121.600 31.748,121.600 31.929 C 121.600 32.242,118.073 34.000,117.444 34.000 C 117.278 34.000,116.871 34.272,116.539 34.604 C 116.207 34.936,115.770 35.105,115.568 34.980 C 115.365 34.855,115.200 34.943,115.200 35.176 C 115.200 35.409,114.964 35.600,114.675 35.600 C 114.387 35.600,113.802 35.925,113.375 36.322 C 112.949 36.720,112.015 37.303,111.300 37.620 C 110.585 37.936,110.000 38.331,110.000 38.498 C 110.000 38.664,109.680 38.800,109.288 38.800 C 108.897 38.800,108.317 39.160,108.000 39.600 C 107.683 40.040,107.103 40.400,106.712 40.400 C 106.320 40.400,106.000 40.580,106.000 40.800 C 106.000 41.020,105.680 41.200,105.288 41.200 C 104.897 41.200,104.317 41.560,104.000 42.000 C 103.683 42.440,103.183 42.800,102.888 42.800 C 102.594 42.800,102.467 42.984,102.606 43.210 C 102.745 43.435,102.711 43.576,102.530 43.523 C 101.848 43.322,99.682 44.355,98.678 45.358 C 98.105 45.931,97.401 46.400,97.114 46.400 C 96.827 46.400,96.368 46.760,96.093 47.200 C 95.818 47.640,95.326 48.000,95.000 48.000 C 94.674 48.000,94.182 48.360,93.907 48.800 C 93.632 49.240,93.163 49.600,92.864 49.600 C 92.565 49.600,91.817 50.140,91.200 50.800 C 90.583 51.460,89.903 52.000,89.688 52.000 C 89.473 52.000,88.555 52.720,87.648 53.600 C 86.741 54.480,85.831 55.200,85.626 55.200 C 85.422 55.200,85.140 55.560,85.000 56.000 C 84.860 56.440,84.470 56.800,84.134 56.800 C 83.797 56.800,83.044 57.300,82.460 57.910 C 81.877 58.521,80.454 59.707,79.298 60.546 C 78.142 61.384,77.298 62.235,77.422 62.435 C 77.546 62.636,77.356 62.800,77.000 62.800 C 76.644 62.800,76.464 62.980,76.600 63.200 C 76.736 63.420,76.522 63.603,76.124 63.606 C 75.510 63.611,75.491 63.671,76.000 64.000 C 76.512 64.331,76.497 64.389,75.895 64.394 C 75.141 64.400,66.800 72.498,66.800 73.224 C 66.800 73.792,65.780 74.800,65.205 74.800 C 64.956 74.800,64.864 74.980,65.000 75.200 C 65.136 75.420,64.877 75.600,64.424 75.600 C 63.971 75.600,63.600 75.779,63.600 75.999 C 63.600 76.218,62.973 77.091,62.207 77.939 C 61.441 78.787,60.931 79.598,61.074 79.741 C 61.217 79.883,61.023 80.000,60.643 80.000 C 60.263 80.000,60.044 80.148,60.156 80.329 C 60.268 80.509,60.053 80.934,59.680 81.272 C 58.595 82.252,57.600 83.573,57.600 84.033 C 57.600 84.622,56.550 85.617,56.248 85.314 C 56.111 85.178,56.000 85.301,56.000 85.586 C 56.000 85.872,55.612 86.442,55.139 86.853 C 54.665 87.264,54.492 87.600,54.755 87.600 C 55.105 87.600,55.095 87.748,54.716 88.158 C 54.432 88.465,54.065 88.634,53.900 88.534 C 53.735 88.435,53.600 88.633,53.600 88.976 C 53.600 89.319,53.420 89.600,53.200 89.600 C 52.980 89.600,52.800 89.888,52.800 90.240 C 52.800 90.591,52.260 91.383,51.600 92.000 C 50.940 92.617,50.400 93.317,50.400 93.557 C 50.400 93.797,50.040 94.218,49.600 94.493 C 49.160 94.768,48.800 95.320,48.800 95.720 C 48.800 96.120,48.620 96.336,48.400 96.200 C 48.180 96.064,48.000 96.218,48.000 96.543 C 48.000 96.868,47.833 97.193,47.630 97.267 C 47.426 97.340,47.201 97.670,47.130 98.000 C 47.058 98.330,46.685 98.891,46.300 99.247 C 45.915 99.603,45.600 100.198,45.600 100.571 C 45.600 100.943,45.420 101.136,45.200 101.000 C 44.972 100.859,44.800 101.204,44.800 101.800 C 44.800 102.376,44.639 102.748,44.442 102.626 C 44.033 102.373,43.600 103.301,43.600 104.433 C 43.600 104.855,43.420 105.200,43.200 105.200 C 42.980 105.200,42.800 105.488,42.800 105.840 C 42.800 106.191,42.258 106.986,41.595 107.605 C 40.790 108.357,40.558 108.798,40.895 108.933 C 41.294 109.094,41.295 109.143,40.900 109.168 C 40.625 109.186,40.400 109.548,40.400 109.973 C 40.400 110.411,40.030 110.864,39.547 111.017 C 38.872 111.231,38.810 111.363,39.247 111.651 C 39.704 111.951,39.681 112.085,39.117 112.418 C 38.700 112.664,38.531 113.077,38.685 113.476 C 38.853 113.915,38.781 114.036,38.468 113.842 C 38.169 113.657,38.000 113.849,38.000 114.376 C 38.000 114.829,37.820 115.200,37.600 115.200 C 37.142 115.200,37.043 116.396,37.500 116.407 C 37.665 116.411,38.340 116.858,39.000 117.400 C 40.898 118.959,48.708 125.037,52.000 127.517 C 53.650 128.760,56.371 130.862,58.046 132.188 C 59.721 133.515,64.370 137.120,68.377 140.200 C 72.383 143.280,77.611 147.330,79.993 149.200 C 82.375 151.070,86.007 153.901,88.062 155.492 C 90.118 157.083,93.161 159.445,94.825 160.741 C 98.731 163.785,99.600 164.092,99.600 162.427 C 99.600 161.752,99.780 161.200,100.000 161.200 C 100.220 161.200,100.400 160.840,100.400 160.400 C 100.400 159.960,100.580 159.600,100.800 159.600 C 101.020 159.600,101.200 159.345,101.200 159.033 C 101.200 158.722,101.425 158.376,101.700 158.265 C 102.100 158.104,102.100 158.057,101.700 158.032 C 101.425 158.014,101.200 157.809,101.200 157.576 C 101.200 157.343,101.380 157.264,101.600 157.400 C 101.828 157.541,102.000 157.196,102.000 156.600 C 102.000 156.004,102.172 155.659,102.400 155.800 C 102.630 155.942,102.803 155.570,102.806 154.924 C 102.811 154.051,102.899 153.934,103.200 154.400 C 103.488 154.846,103.589 154.616,103.594 153.500 C 103.597 152.675,103.780 152.000,104.000 152.000 C 104.220 152.000,104.400 151.640,104.400 151.200 C 104.400 150.760,104.580 150.400,104.800 150.400 C 105.020 150.400,105.200 150.040,105.200 149.600 C 105.200 149.160,105.380 148.800,105.600 148.800 C 105.820 148.800,106.003 148.395,106.006 147.900 C 106.011 147.172,106.086 147.115,106.400 147.600 C 106.693 148.054,106.789 147.878,106.794 146.876 C 106.797 146.097,106.964 145.654,107.200 145.800 C 107.420 145.936,107.600 145.767,107.600 145.424 C 107.600 145.081,107.799 144.800,108.043 144.800 C 108.286 144.800,108.384 144.536,108.260 144.213 C 108.136 143.890,108.207 143.519,108.417 143.389 C 108.628 143.259,108.800 142.816,108.800 142.403 C 108.800 141.990,109.182 141.533,109.653 141.383 C 110.323 141.171,110.387 141.037,109.953 140.762 C 109.550 140.507,109.672 140.409,110.400 140.400 C 111.217 140.390,111.290 140.310,110.800 139.963 C 110.348 139.644,110.324 139.489,110.700 139.336 C 110.975 139.225,111.200 138.878,111.200 138.567 C 111.200 138.255,111.380 138.000,111.600 138.000 C 111.820 138.000,112.000 137.730,112.000 137.400 C 112.000 137.070,112.180 136.800,112.400 136.800 C 112.620 136.800,112.800 136.570,112.800 136.288 C 112.800 136.007,113.160 135.517,113.600 135.200 C 114.040 134.883,114.400 134.375,114.400 134.072 C 114.400 133.769,114.940 133.017,115.600 132.400 C 116.260 131.783,116.800 131.067,116.800 130.808 C 116.800 130.549,117.520 129.646,118.400 128.800 C 119.280 127.954,120.000 127.058,120.000 126.808 C 120.000 126.558,120.208 126.481,120.462 126.638 C 120.727 126.802,120.816 126.749,120.670 126.513 C 120.341 125.981,121.836 124.252,122.351 124.570 C 122.568 124.704,122.875 124.602,123.034 124.345 C 123.215 124.052,123.150 123.984,122.862 124.162 C 122.608 124.319,122.400 124.284,122.400 124.086 C 122.400 123.559,123.774 122.400,124.398 122.400 C 124.693 122.400,124.825 122.292,124.693 122.160 C 124.380 121.847,127.028 119.200,127.653 119.200 C 127.917 119.200,128.026 119.093,127.896 118.962 C 127.588 118.654,131.835 114.400,132.451 114.400 C 132.709 114.400,133.783 113.500,134.837 112.400 C 135.892 111.300,136.953 110.400,137.196 110.400 C 137.438 110.400,138.090 109.947,138.644 109.392 C 139.198 108.838,139.806 108.480,139.994 108.596 C 140.182 108.712,140.691 108.356,141.126 107.804 C 141.560 107.252,142.138 106.800,142.411 106.800 C 142.683 106.800,143.231 106.426,143.627 105.968 C 144.024 105.511,144.585 105.088,144.874 105.029 C 145.995 104.799,146.786 104.300,146.574 103.958 C 146.452 103.761,146.723 103.600,147.176 103.600 C 147.629 103.600,148.000 103.409,148.000 103.176 C 148.000 102.943,148.180 102.864,148.400 103.000 C 148.620 103.136,148.800 102.967,148.800 102.624 C 148.800 102.267,149.142 102.000,149.600 102.000 C 150.040 102.000,150.400 101.820,150.400 101.600 C 150.400 101.380,150.760 101.200,151.200 101.200 C 151.640 101.200,152.000 101.009,152.000 100.776 C 152.000 100.543,152.181 100.465,152.403 100.602 C 152.624 100.739,152.918 100.559,153.054 100.202 C 153.191 99.846,153.557 99.651,153.867 99.770 C 154.177 99.889,154.533 99.720,154.658 99.393 C 154.783 99.067,155.226 98.800,155.643 98.800 C 156.059 98.800,156.400 98.620,156.400 98.400 C 156.400 98.180,156.760 98.000,157.200 98.000 C 157.640 98.000,158.000 97.820,158.000 97.600 C 158.000 97.380,158.360 97.200,158.800 97.200 C 159.240 97.200,159.600 97.020,159.600 96.800 C 159.600 96.580,159.960 96.400,160.400 96.400 C 160.840 96.400,161.200 96.220,161.200 96.000 C 161.200 95.780,161.560 95.600,162.000 95.600 C 162.440 95.600,162.800 95.420,162.800 95.200 C 162.800 94.980,163.250 94.800,163.800 94.800 C 164.350 94.800,164.800 94.620,164.800 94.400 C 164.800 94.180,165.250 94.000,165.800 94.000 C 166.350 94.000,166.800 93.820,166.800 93.600 C 166.800 93.380,167.340 93.200,168.000 93.200 C 168.660 93.200,169.200 93.020,169.200 92.800 C 169.200 92.580,169.740 92.400,170.400 92.400 C 171.060 92.400,171.600 92.220,171.600 92.000 C 171.600 91.780,171.870 91.600,172.200 91.600 C 172.530 91.600,172.800 91.787,172.800 92.016 C 172.800 92.244,173.179 92.078,173.641 91.647 C 174.271 91.061,174.829 90.920,175.860 91.087 C 176.905 91.257,177.208 91.177,177.118 90.755 C 177.030 90.342,177.384 90.234,178.500 90.331 C 179.387 90.409,180.000 90.286,180.000 90.031 C 180.000 89.787,180.780 89.600,181.800 89.600 C 182.790 89.600,183.600 89.420,183.600 89.200 C 183.600 88.978,184.656 88.800,185.967 88.800 C 187.496 88.800,188.392 88.624,188.499 88.304 C 188.618 87.947,189.669 87.836,192.232 87.912 C 194.724 87.984,195.619 87.895,195.200 87.614 C 194.790 87.339,197.546 87.210,203.924 87.206 C 210.366 87.202,213.167 87.330,212.986 87.622 C 212.809 87.910,213.845 88.007,216.230 87.926 C 218.754 87.840,219.782 87.946,219.901 88.304 C 220.006 88.617,220.864 88.800,222.233 88.800 C 223.425 88.800,224.400 88.980,224.400 89.200 C 224.400 89.420,225.311 89.600,226.424 89.600 C 227.849 89.600,228.363 89.736,228.162 90.061 C 227.955 90.396,228.335 90.449,229.549 90.255 C 230.883 90.041,231.270 90.118,231.468 90.632 C 231.646 91.098,232.028 91.214,232.842 91.052 C 233.462 90.928,234.077 91.000,234.208 91.213 C 234.340 91.426,234.977 91.600,235.624 91.600 C 236.271 91.600,236.800 91.780,236.800 92.000 C 236.800 92.220,237.340 92.400,238.000 92.400 C 238.660 92.400,239.200 92.580,239.200 92.800 C 239.200 93.020,239.650 93.200,240.200 93.200 C 240.750 93.200,241.200 93.380,241.200 93.600 C 241.200 93.820,241.751 94.000,242.424 94.000 C 243.137 94.000,243.544 94.167,243.400 94.400 C 243.261 94.625,243.582 94.800,244.134 94.800 C 244.673 94.800,245.217 95.067,245.342 95.393 C 245.472 95.731,245.835 95.885,246.185 95.750 C 246.523 95.621,246.800 95.714,246.800 95.957 C 246.800 96.201,247.160 96.400,247.600 96.400 C 248.040 96.400,248.400 96.580,248.400 96.800 C 248.400 97.020,248.805 97.203,249.300 97.206 C 250.028 97.211,250.085 97.286,249.600 97.600 C 249.146 97.893,249.322 97.989,250.324 97.994 C 251.103 97.997,251.546 98.164,251.400 98.400 C 251.264 98.620,251.523 98.800,251.976 98.800 C 252.429 98.800,252.800 98.980,252.800 99.200 C 252.800 99.420,253.160 99.600,253.600 99.600 C 254.040 99.600,254.400 99.780,254.400 100.000 C 254.400 100.220,254.760 100.400,255.200 100.400 C 255.640 100.400,256.000 100.580,256.000 100.800 C 256.000 101.020,256.320 101.200,256.712 101.200 C 257.103 101.200,257.683 101.560,258.000 102.000 C 258.317 102.440,258.885 102.800,259.261 102.800 C 259.638 102.800,260.060 103.160,260.200 103.600 C 260.358 104.097,260.805 104.400,261.380 104.400 C 261.970 104.400,262.383 104.691,262.516 105.200 C 262.631 105.640,263.036 106.000,263.416 106.000 C 263.795 106.000,264.397 106.315,264.753 106.701 C 265.706 107.733,267.009 108.693,266.653 108.100 C 266.488 107.825,266.445 107.600,266.558 107.600 C 266.923 107.600,268.800 109.624,268.800 110.018 C 268.800 110.228,269.164 110.400,269.609 110.400 C 270.404 110.400,274.800 114.426,274.800 115.154 C 274.800 116.046,276.761 114.877,278.869 112.729 C 280.127 111.448,281.356 110.400,281.601 110.400 C 281.847 110.400,281.936 110.220,281.800 110.000 C 281.664 109.780,281.844 109.600,282.200 109.600 C 282.556 109.600,282.736 109.420,282.600 109.200 C 282.464 108.980,282.561 108.800,282.816 108.800 C 283.336 108.800,291.600 100.789,291.600 100.286 C 291.600 99.925,293.411 98.032,293.891 97.891 C 294.061 97.841,294.155 97.665,294.100 97.500 C 294.045 97.335,294.225 97.245,294.500 97.300 C 294.775 97.355,294.955 97.175,294.900 96.900 C 294.845 96.625,295.025 96.445,295.300 96.500 C 295.575 96.555,295.755 96.375,295.700 96.100 C 295.645 95.825,295.825 95.645,296.100 95.700 C 296.375 95.755,296.555 95.575,296.500 95.300 C 296.445 95.025,296.625 94.845,296.900 94.900 C 297.175 94.955,297.355 94.775,297.300 94.500 C 297.245 94.225,297.335 94.045,297.500 94.100 C 297.665 94.155,297.833 94.051,297.873 93.870 C 297.913 93.688,298.802 92.788,299.849 91.870 C 301.919 90.053,308.800 83.174,308.800 82.920 C 308.800 82.523,310.743 80.876,310.958 81.091 C 311.091 81.224,311.200 81.120,311.200 80.860 C 311.200 80.242,317.055 74.388,317.363 74.697 C 317.494 74.827,317.603 74.588,317.606 74.167 C 317.611 73.525,317.676 73.498,318.000 74.000 C 318.294 74.455,318.389 74.470,318.394 74.063 C 318.402 73.363,323.363 68.402,324.063 68.394 C 324.470 68.389,324.455 68.294,324.000 68.000 C 323.557 67.714,323.538 67.611,323.929 67.606 C 324.219 67.603,324.727 67.330,325.057 67.000 C 325.387 66.670,325.540 66.400,325.396 66.400 C 325.252 66.400,325.869 65.694,326.767 64.831 C 328.606 63.064,328.869 61.699,327.545 60.788 C 326.754 60.244,325.650 59.187,324.549 57.919 C 323.918 57.192,322.436 56.000,322.164 56.000 C 322.039 56.000,321.246 55.280,320.400 54.400 C 319.554 53.520,318.706 52.800,318.515 52.800 C 318.324 52.800,317.372 52.080,316.400 51.200 C 315.428 50.320,314.482 49.600,314.298 49.600 C 314.114 49.600,313.514 49.150,312.964 48.600 C 312.414 48.050,311.805 47.600,311.610 47.600 C 311.416 47.600,311.015 47.375,310.719 47.100 C 309.304 45.787,306.898 44.085,306.094 43.830 C 305.602 43.674,305.200 43.378,305.200 43.173 C 305.200 42.968,304.964 42.800,304.675 42.800 C 304.387 42.800,303.764 42.440,303.292 42.000 C 302.820 41.560,302.196 41.200,301.905 41.200 C 301.614 41.200,301.117 40.840,300.800 40.400 C 300.483 39.960,299.903 39.600,299.512 39.600 C 299.120 39.600,298.800 39.420,298.800 39.200 C 298.800 38.980,298.480 38.800,298.088 38.800 C 297.697 38.800,297.117 38.440,296.800 38.000 C 296.483 37.560,295.903 37.200,295.512 37.200 C 295.120 37.200,294.800 37.020,294.800 36.800 C 294.800 36.580,294.440 36.400,294.000 36.400 C 293.560 36.400,293.200 36.220,293.200 36.000 C 293.200 35.780,292.840 35.600,292.400 35.600 C 291.960 35.600,291.600 35.450,291.600 35.268 C 291.600 35.085,291.105 34.680,290.500 34.368 C 289.895 34.056,289.310 33.701,289.200 33.578 C 289.090 33.455,287.380 32.591,285.400 31.657 C 283.420 30.724,281.487 29.789,281.105 29.580 C 280.723 29.371,280.138 29.200,279.805 29.200 C 279.472 29.200,279.200 29.020,279.200 28.800 C 279.200 28.580,278.840 28.400,278.400 28.400 C 277.960 28.400,277.600 28.231,277.600 28.025 C 277.600 27.818,276.790 27.528,275.800 27.379 C 274.810 27.231,274.000 26.950,274.000 26.755 C 274.000 26.560,273.640 26.400,273.200 26.400 C 272.760 26.400,272.400 26.220,272.400 26.000 C 272.400 25.780,271.860 25.600,271.200 25.600 C 270.540 25.600,270.000 25.420,270.000 25.200 C 270.000 24.980,269.638 24.800,269.195 24.800 C 268.752 24.800,268.032 24.620,267.595 24.400 C 267.158 24.180,266.442 23.820,266.005 23.600 C 265.568 23.380,264.848 23.200,264.405 23.200 C 263.962 23.200,263.600 23.020,263.600 22.800 C 263.600 22.580,263.071 22.400,262.424 22.400 C 261.777 22.400,261.136 22.220,261.000 22.000 C 260.864 21.780,260.223 21.600,259.576 21.600 C 258.929 21.600,258.400 21.420,258.400 21.200 C 258.400 20.980,257.871 20.800,257.224 20.800 C 256.577 20.800,255.936 20.620,255.800 20.400 C 255.664 20.180,254.933 20.000,254.176 20.000 C 253.419 20.000,252.800 19.820,252.800 19.600 C 252.800 19.380,252.181 19.200,251.424 19.200 C 250.667 19.200,249.936 19.020,249.800 18.800 C 249.664 18.580,248.843 18.400,247.976 18.400 C 247.109 18.400,246.400 18.220,246.400 18.000 C 246.400 17.780,245.691 17.600,244.824 17.600 C 243.957 17.600,243.136 17.420,243.000 17.200 C 242.864 16.980,241.964 16.800,241.000 16.800 C 240.036 16.800,239.136 16.620,239.000 16.400 C 238.864 16.180,237.874 16.000,236.800 16.000 C 235.726 16.000,234.736 15.820,234.600 15.600 C 234.464 15.380,233.193 15.200,231.776 15.200 C 230.325 15.200,229.200 15.025,229.200 14.800 C 229.200 14.565,227.827 14.400,225.880 14.400 C 224.054 14.400,222.388 14.228,222.179 14.019 C 221.969 13.809,218.648 13.555,214.799 13.454 C 210.949 13.354,206.360 13.173,204.600 13.053 C 202.840 12.934,200.860 12.998,200.200 13.195 " stroke="none" fill="#ec4434" fill-rule="evenodd"></path><path id="path4" d="M65.802 73.998 C 65.403 74.439,65.207 74.800,65.367 74.800 C 65.788 74.800,66.928 73.595,66.712 73.379 C 66.611 73.278,66.202 73.556,65.802 73.998 M314.064 77.493 C 312.449 79.125,311.198 80.532,311.285 80.619 C 311.372 80.706,312.774 79.437,314.400 77.800 C 316.026 76.163,317.276 74.756,317.178 74.675 C 317.080 74.593,315.679 75.861,314.064 77.493 M309.660 81.880 C 309.143 82.415,308.797 82.930,308.892 83.025 C 308.986 83.119,309.485 82.748,310.000 82.200 C 310.515 81.652,310.861 81.137,310.768 81.055 C 310.676 80.974,310.177 81.345,309.660 81.880 M306.975 84.900 L 305.800 86.200 307.100 85.025 C 307.815 84.379,308.400 83.794,308.400 83.725 C 308.400 83.416,308.070 83.688,306.975 84.900 M56.524 84.573 C 55.879 85.308,56.353 85.704,57.048 85.010 C 57.351 84.706,57.600 84.354,57.600 84.229 C 57.600 83.826,57.015 84.013,56.524 84.573 M195.200 87.600 C 196.013 88.125,212.675 88.125,213.000 87.600 C 213.162 87.338,210.039 87.202,203.924 87.206 C 197.756 87.210,194.803 87.344,195.200 87.600 M189.100 87.876 C 187.811 88.213,188.382 88.800,190.000 88.800 C 191.616 88.800,192.132 88.290,190.967 87.843 C 190.298 87.586,190.203 87.587,189.100 87.876 M217.095 87.877 C 215.891 88.191,216.767 88.800,218.424 88.800 C 220.140 88.800,220.541 88.238,219.100 87.852 C 218.605 87.719,218.110 87.629,218.000 87.652 C 217.890 87.674,217.483 87.776,217.095 87.877 M183.600 89.200 C 183.600 89.420,184.129 89.600,184.776 89.600 C 185.423 89.600,186.064 89.420,186.200 89.200 C 186.347 88.962,185.871 88.800,185.024 88.800 C 184.241 88.800,183.600 88.980,183.600 89.200 M222.000 89.200 C 222.788 89.709,224.400 89.709,224.400 89.200 C 224.400 88.980,223.725 88.803,222.900 88.806 C 221.784 88.811,221.554 88.912,222.000 89.200 M180.344 89.957 C 180.841 90.272,182.400 90.117,182.400 89.753 C 182.400 89.669,181.815 89.603,181.100 89.606 C 180.216 89.610,179.974 89.723,180.344 89.957 M226.400 89.997 C 226.400 90.216,226.755 90.341,227.190 90.274 C 228.442 90.083,228.641 89.600,227.467 89.600 C 226.880 89.600,226.400 89.779,226.400 89.997 M177.026 90.358 C 176.904 90.555,177.099 90.829,177.460 90.968 C 178.238 91.266,178.583 91.020,178.216 90.427 C 177.895 89.906,177.325 89.874,177.026 90.358 M229.831 90.350 C 229.697 90.567,229.725 90.814,229.893 90.898 C 230.448 91.176,231.200 91.007,231.221 90.600 C 231.250 90.058,230.135 89.858,229.831 90.350 M299.853 91.804 C 298.782 92.792,298.069 93.600,298.269 93.600 C 298.470 93.600,299.428 92.790,300.400 91.800 C 302.670 89.487,302.363 89.489,299.853 91.804 M51.660 91.042 C 50.931 91.866,51.400 92.257,52.181 91.476 C 52.521 91.136,52.800 90.754,52.800 90.629 C 52.800 90.209,52.206 90.424,51.660 91.042 M174.200 91.200 C 174.057 91.431,174.428 91.597,175.076 91.594 C 175.949 91.589,176.066 91.501,175.600 91.200 C 174.831 90.703,174.507 90.703,174.200 91.200 M232.800 91.200 C 232.334 91.501,232.451 91.589,233.324 91.594 C 233.972 91.597,234.343 91.431,234.200 91.200 C 233.893 90.703,233.569 90.703,232.800 91.200 M171.600 92.000 C 171.600 92.220,171.870 92.400,172.200 92.400 C 172.530 92.400,172.800 92.220,172.800 92.000 C 172.800 91.780,172.530 91.600,172.200 91.600 C 171.870 91.600,171.600 91.780,171.600 92.000 M235.400 92.000 C 235.536 92.220,235.907 92.400,236.224 92.400 C 236.541 92.400,236.800 92.220,236.800 92.000 C 236.800 91.780,236.429 91.600,235.976 91.600 C 235.523 91.600,235.264 91.780,235.400 92.000 M169.200 92.800 C 169.200 93.020,169.459 93.200,169.776 93.200 C 170.093 93.200,170.464 93.020,170.600 92.800 C 170.736 92.580,170.477 92.400,170.024 92.400 C 169.571 92.400,169.200 92.580,169.200 92.800 M238.000 92.800 C 238.000 93.020,238.270 93.200,238.600 93.200 C 238.930 93.200,239.200 93.020,239.200 92.800 C 239.200 92.580,238.930 92.400,238.600 92.400 C 238.270 92.400,238.000 92.580,238.000 92.800 M166.800 93.600 C 166.800 93.820,167.160 94.000,167.600 94.000 C 168.040 94.000,168.400 93.820,168.400 93.600 C 168.400 93.380,168.040 93.200,167.600 93.200 C 167.160 93.200,166.800 93.380,166.800 93.600 M164.800 94.400 C 164.800 94.620,165.070 94.800,165.400 94.800 C 165.730 94.800,166.000 94.620,166.000 94.400 C 166.000 94.180,165.730 94.000,165.400 94.000 C 165.070 94.000,164.800 94.180,164.800 94.400 M242.000 94.400 C 242.000 94.620,242.259 94.800,242.576 94.800 C 242.893 94.800,243.264 94.620,243.400 94.400 C 243.536 94.180,243.277 94.000,242.824 94.000 C 242.371 94.000,242.000 94.180,242.000 94.400 M162.800 95.200 C 162.800 95.420,163.059 95.600,163.376 95.600 C 163.693 95.600,164.064 95.420,164.200 95.200 C 164.336 94.980,164.077 94.800,163.624 94.800 C 163.171 94.800,162.800 94.980,162.800 95.200 M292.460 99.080 C 291.943 99.615,291.597 100.130,291.692 100.225 C 291.786 100.319,292.285 99.948,292.800 99.400 C 293.315 98.852,293.661 98.337,293.568 98.255 C 293.476 98.174,292.977 98.545,292.460 99.080 M257.402 102.002 C 257.802 102.444,258.211 102.722,258.312 102.621 C 258.528 102.405,257.388 101.200,256.967 101.200 C 256.807 101.200,257.003 101.561,257.402 102.002 M266.400 107.739 C 266.400 108.162,268.047 109.687,268.267 109.467 C 268.411 109.323,268.112 108.844,267.603 108.403 C 266.702 107.621,266.400 107.455,266.400 107.739 M135.700 111.410 C 135.205 111.939,134.800 112.482,134.800 112.616 C 134.800 112.961,137.151 111.066,137.178 110.700 C 137.219 110.147,136.608 110.441,135.700 111.410 M270.000 110.635 C 270.000 111.012,274.503 115.230,274.698 115.035 C 274.883 114.850,270.573 110.400,270.209 110.400 C 270.094 110.400,270.000 110.506,270.000 110.635 M278.800 112.800 C 277.590 114.094,276.285 115.163,275.900 115.176 C 275.515 115.189,275.200 115.380,275.200 115.600 C 275.200 116.571,276.418 115.802,279.000 113.200 C 280.528 111.660,281.603 110.411,281.389 110.424 C 281.175 110.437,280.010 111.506,278.800 112.800 M129.729 116.593 C 128.591 117.766,127.745 118.811,127.850 118.916 C 128.033 119.099,132.400 114.932,132.400 114.574 C 132.400 114.064,131.588 114.678,129.729 116.593 M125.728 120.588 C 125.028 121.322,124.563 122.029,124.694 122.161 C 124.826 122.292,124.671 122.400,124.350 122.400 C 123.822 122.400,121.942 124.218,120.400 126.221 C 119.831 126.959,119.841 126.969,120.589 126.400 C 121.963 125.355,123.792 123.412,123.694 123.100 C 123.642 122.935,123.801 122.800,124.047 122.800 C 124.442 122.800,127.600 119.734,127.600 119.351 C 127.600 118.913,126.860 119.402,125.728 120.588 M118.061 129.055 C 117.325 129.825,116.792 130.526,116.878 130.612 C 117.057 130.791,118.736 129.338,119.550 128.300 C 120.518 127.063,119.445 127.608,118.061 129.055 M115.260 132.651 C 114.743 133.202,114.417 133.750,114.536 133.869 C 114.752 134.085,116.800 132.230,116.800 131.818 C 116.800 131.347,116.156 131.695,115.260 132.651 M113.260 135.442 C 112.531 136.266,113.000 136.657,113.781 135.876 C 114.121 135.536,114.400 135.154,114.400 135.029 C 114.400 134.609,113.806 134.824,113.260 135.442 M112.000 137.367 C 112.000 137.678,111.775 138.014,111.500 138.112 C 111.225 138.210,111.137 138.437,111.304 138.616 C 111.471 138.795,111.871 138.595,112.191 138.171 C 112.881 137.259,112.951 136.800,112.400 136.800 C 112.180 136.800,112.000 137.055,112.000 137.367 M25.012 145.317 C 24.841 145.712,24.813 146.147,24.951 146.284 C 25.357 146.690,25.684 146.120,25.497 145.331 C 25.332 144.633,25.310 144.632,25.012 145.317 M24.212 148.117 C 24.041 148.512,24.013 148.947,24.151 149.084 C 24.557 149.490,24.884 148.920,24.697 148.131 C 24.532 147.433,24.510 147.432,24.212 148.117 M23.200 151.200 C 23.200 151.640,23.380 152.000,23.600 152.000 C 23.820 152.000,24.000 151.640,24.000 151.200 C 24.000 150.760,23.820 150.400,23.600 150.400 C 23.380 150.400,23.200 150.760,23.200 151.200 M22.400 154.424 C 22.400 154.877,22.580 155.136,22.800 155.000 C 23.020 154.864,23.200 154.493,23.200 154.176 C 23.200 153.859,23.020 153.600,22.800 153.600 C 22.580 153.600,22.400 153.971,22.400 154.424 M21.600 157.600 C 21.600 158.040,21.780 158.400,22.000 158.400 C 22.220 158.400,22.400 158.040,22.400 157.600 C 22.400 157.160,22.220 156.800,22.000 156.800 C 21.780 156.800,21.600 157.160,21.600 157.600 M20.800 160.776 C 20.800 161.203,20.980 161.664,21.200 161.800 C 21.427 161.940,21.600 161.604,21.600 161.024 C 21.600 160.461,21.420 160.000,21.200 160.000 C 20.980 160.000,20.800 160.349,20.800 160.776 M99.606 162.100 C 99.611 162.828,99.686 162.885,100.000 162.400 C 100.501 161.624,100.501 161.200,100.000 161.200 C 99.780 161.200,99.603 161.605,99.606 162.100 M20.267 163.867 C 19.852 164.282,19.953 165.600,20.400 165.600 C 20.620 165.600,20.800 165.150,20.800 164.600 C 20.800 163.553,20.708 163.426,20.267 163.867 M203.079 164.695 C 202.634 165.384,202.803 232.557,203.249 232.111 C 203.452 231.908,203.561 217.276,203.502 197.978 C 203.446 179.400,203.256 164.423,203.079 164.695 M379.200 167.600 C 379.200 168.260,379.380 168.800,379.600 168.800 C 379.820 168.800,380.000 168.260,380.000 167.600 C 380.000 166.940,379.820 166.400,379.600 166.400 C 379.380 166.400,379.200 166.940,379.200 167.600 M19.200 169.176 C 19.200 169.603,19.380 170.064,19.600 170.200 C 19.827 170.340,20.000 170.004,20.000 169.424 C 20.000 168.861,19.820 168.400,19.600 168.400 C 19.380 168.400,19.200 168.749,19.200 169.176 M380.000 172.600 C 380.000 173.730,380.155 174.351,380.400 174.200 C 380.620 174.064,380.800 173.344,380.800 172.600 C 380.800 171.856,380.620 171.136,380.400 171.000 C 380.155 170.849,380.000 171.470,380.000 172.600 M18.619 173.700 C 18.452 174.085,18.452 174.715,18.619 175.100 C 19.003 175.981,19.374 174.881,19.091 173.700 C 18.932 173.033,18.909 173.033,18.619 173.700 M380.800 179.024 C 380.800 180.137,380.956 180.751,381.200 180.600 C 381.420 180.464,381.600 179.643,381.600 178.776 C 381.600 177.909,381.420 177.200,381.200 177.200 C 380.980 177.200,380.800 178.021,380.800 179.024 M17.867 179.467 C 17.453 179.880,17.553 181.923,18.000 182.200 C 18.242 182.349,18.400 181.804,18.400 180.824 C 18.400 179.166,18.334 178.999,17.867 179.467 M381.606 186.700 C 381.603 188.371,381.770 189.600,382.000 189.600 C 382.513 189.600,382.513 185.194,382.000 184.400 C 381.730 183.982,381.610 184.680,381.606 186.700 M16.800 192.824 C 16.800 195.404,16.943 196.759,17.200 196.600 C 17.421 196.463,17.600 194.663,17.600 192.576 C 17.600 190.325,17.438 188.800,17.200 188.800 C 16.960 188.800,16.800 190.408,16.800 192.824 M382.400 205.224 C 382.400 211.271,382.538 214.362,382.800 214.200 C 383.047 214.047,383.200 210.529,383.200 204.976 C 383.200 199.259,383.055 196.000,382.800 196.000 C 382.545 196.000,382.400 199.341,382.400 205.224 M16.800 206.376 C 16.800 208.863,16.973 210.860,17.200 211.000 C 17.458 211.159,17.600 209.604,17.600 206.624 C 17.600 203.808,17.444 202.000,17.200 202.000 C 16.958 202.000,16.800 203.725,16.800 206.376 M17.600 218.576 C 17.600 219.553,17.780 220.464,18.000 220.600 C 18.247 220.752,18.400 220.071,18.400 218.824 C 18.400 217.711,18.220 216.800,18.000 216.800 C 17.780 216.800,17.600 217.599,17.600 218.576 M381.867 219.067 C 381.431 219.502,381.556 226.000,382.000 226.000 C 382.237 226.000,382.400 224.533,382.400 222.400 C 382.400 218.796,382.364 218.570,381.867 219.067 M18.667 223.867 C 18.243 224.290,18.357 226.800,18.800 226.800 C 19.020 226.800,19.200 226.080,19.200 225.200 C 19.200 223.565,19.134 223.400,18.667 223.867 M380.800 230.600 C 380.800 232.067,380.974 233.200,381.200 233.200 C 381.426 233.200,381.600 232.067,381.600 230.600 C 381.600 229.133,381.426 228.000,381.200 228.000 C 380.974 228.000,380.800 229.133,380.800 230.600 M19.200 230.400 C 19.200 231.060,19.380 231.600,19.600 231.600 C 19.820 231.600,20.000 231.060,20.000 230.400 C 20.000 229.740,19.820 229.200,19.600 229.200 C 19.380 229.200,19.200 229.740,19.200 230.400 M20.000 234.776 C 20.000 235.423,20.180 236.064,20.400 236.200 C 20.638 236.347,20.800 235.871,20.800 235.024 C 20.800 234.241,20.620 233.600,20.400 233.600 C 20.180 233.600,20.000 234.129,20.000 234.776 M380.000 236.624 C 380.000 238.004,380.152 238.753,380.400 238.600 C 380.620 238.464,380.800 237.463,380.800 236.376 C 380.800 235.289,380.620 234.400,380.400 234.400 C 380.180 234.400,380.000 235.401,380.000 236.624 M98.800 236.600 C 98.800 236.930,98.980 237.200,99.200 237.200 C 99.420 237.200,99.600 236.930,99.600 236.600 C 99.600 236.270,99.420 236.000,99.200 236.000 C 98.980 236.000,98.800 236.270,98.800 236.600 M202.800 237.951 L 202.800 238.788 253.600 238.797 C 298.603 238.805,304.400 238.737,304.400 238.203 C 304.400 237.669,298.668 237.600,254.233 237.600 C 226.641 237.600,203.781 237.491,203.433 237.357 C 202.980 237.183,202.800 237.352,202.800 237.951 M20.800 238.800 C 20.800 239.460,20.980 240.000,21.200 240.000 C 21.420 240.000,21.600 239.460,21.600 238.800 C 21.600 238.140,21.420 237.600,21.200 237.600 C 20.980 237.600,20.800 238.140,20.800 238.800 M99.600 238.776 C 99.600 239.229,99.780 239.600,100.000 239.600 C 100.220 239.600,100.400 239.341,100.400 239.024 C 100.400 238.707,100.220 238.336,100.000 238.200 C 99.780 238.064,99.600 238.323,99.600 238.776 M379.200 241.376 C 379.200 242.379,379.380 243.200,379.600 243.200 C 379.820 243.200,380.000 242.491,380.000 241.624 C 380.000 240.757,379.820 239.936,379.600 239.800 C 379.356 239.649,379.200 240.263,379.200 241.376 M21.600 242.200 C 21.600 242.750,21.780 243.200,22.000 243.200 C 22.220 243.200,22.400 242.750,22.400 242.200 C 22.400 241.650,22.220 241.200,22.000 241.200 C 21.780 241.200,21.600 241.650,21.600 242.200 M101.200 242.776 C 101.200 243.229,101.380 243.600,101.600 243.600 C 101.820 243.600,102.000 243.341,102.000 243.024 C 102.000 242.707,101.820 242.336,101.600 242.200 C 101.380 242.064,101.200 242.323,101.200 242.776 M378.400 245.576 C 378.400 246.469,378.580 247.200,378.800 247.200 C 379.020 247.200,379.200 246.581,379.200 245.824 C 379.200 245.067,379.020 244.336,378.800 244.200 C 378.558 244.051,378.400 244.596,378.400 245.576 M22.400 245.400 C 22.400 245.950,22.580 246.400,22.800 246.400 C 23.020 246.400,23.200 245.950,23.200 245.400 C 23.200 244.850,23.020 244.400,22.800 244.400 C 22.580 244.400,22.400 244.850,22.400 245.400 M23.200 248.600 C 23.200 249.150,23.380 249.600,23.600 249.600 C 23.820 249.600,24.000 249.150,24.000 248.600 C 24.000 248.050,23.820 247.600,23.600 247.600 C 23.380 247.600,23.200 248.050,23.200 248.600 M377.600 249.800 C 377.600 250.570,377.780 251.200,378.000 251.200 C 378.220 251.200,378.400 250.570,378.400 249.800 C 378.400 249.030,378.220 248.400,378.000 248.400 C 377.780 248.400,377.600 249.030,377.600 249.800 M24.000 251.376 C 24.000 251.913,24.180 252.464,24.400 252.600 C 24.620 252.736,24.800 253.377,24.800 254.024 C 24.800 254.671,24.980 255.200,25.200 255.200 C 25.420 255.200,25.600 254.660,25.600 254.000 C 25.600 253.340,25.420 252.800,25.200 252.800 C 24.980 252.800,24.800 252.260,24.800 251.600 C 24.800 250.940,24.620 250.400,24.400 250.400 C 24.180 250.400,24.000 250.839,24.000 251.376 M376.800 253.400 C 376.800 254.170,376.980 254.800,377.200 254.800 C 377.420 254.800,377.600 254.170,377.600 253.400 C 377.600 252.630,377.420 252.000,377.200 252.000 C 376.980 252.000,376.800 252.630,376.800 253.400 M376.000 256.600 C 376.000 257.370,376.180 258.000,376.400 258.000 C 376.620 258.000,376.800 257.370,376.800 256.600 C 376.800 255.830,376.620 255.200,376.400 255.200 C 376.180 255.200,376.000 255.830,376.000 256.600 M25.600 256.600 C 25.600 257.150,25.780 257.600,26.000 257.600 C 26.220 257.600,26.400 257.150,26.400 256.600 C 26.400 256.050,26.220 255.600,26.000 255.600 C 25.780 255.600,25.600 256.050,25.600 256.600 M26.400 258.776 C 26.400 259.203,26.580 259.664,26.800 259.800 C 27.027 259.940,27.200 259.604,27.200 259.024 C 27.200 258.461,27.020 258.000,26.800 258.000 C 26.580 258.000,26.400 258.349,26.400 258.776 M375.200 259.624 C 375.200 260.337,375.367 260.744,375.600 260.600 C 375.820 260.464,376.000 259.913,376.000 259.376 C 376.000 258.839,375.820 258.400,375.600 258.400 C 375.380 258.400,375.200 258.951,375.200 259.624 M27.200 261.200 C 27.200 261.640,27.380 262.000,27.600 262.000 C 27.820 262.000,28.000 261.640,28.000 261.200 C 28.000 260.760,27.820 260.400,27.600 260.400 C 27.380 260.400,27.200 260.760,27.200 261.200 M374.400 262.600 C 374.400 263.150,374.580 263.600,374.800 263.600 C 375.020 263.600,375.200 263.150,375.200 262.600 C 375.200 262.050,375.020 261.600,374.800 261.600 C 374.580 261.600,374.400 262.050,374.400 262.600 M27.722 263.058 C 27.573 263.446,27.740 263.913,28.129 264.197 C 28.491 264.462,28.693 264.774,28.576 264.890 C 28.460 265.006,28.597 265.844,28.880 266.751 C 29.412 268.456,30.400 269.008,30.400 267.600 C 30.400 267.160,30.220 266.800,30.000 266.800 C 29.780 266.800,29.600 266.361,29.600 265.824 C 29.600 265.287,29.420 264.736,29.200 264.600 C 28.980 264.464,28.800 263.913,28.800 263.376 C 28.800 262.270,28.104 262.064,27.722 263.058 M373.600 265.200 C 373.600 265.980,374.024 266.242,374.506 265.761 C 374.826 265.440,374.407 264.400,373.957 264.400 C 373.761 264.400,373.600 264.760,373.600 265.200 M372.800 267.920 C 372.800 268.536,372.602 269.238,372.360 269.480 C 372.111 269.729,372.044 270.307,372.204 270.813 C 372.522 271.816,373.190 271.184,373.013 270.046 C 372.958 269.691,373.074 269.295,373.271 269.168 C 373.954 268.724,374.065 266.800,373.408 266.800 C 373.009 266.800,372.800 267.185,372.800 267.920 M30.000 269.576 C 30.000 270.003,30.180 270.464,30.400 270.600 C 30.620 270.736,30.800 271.197,30.800 271.624 C 30.800 272.051,30.980 272.400,31.200 272.400 C 31.420 272.400,31.600 272.850,31.600 273.400 C 31.600 273.950,31.780 274.400,32.000 274.400 C 32.220 274.400,32.400 274.760,32.400 275.200 C 32.400 275.640,32.580 276.000,32.800 276.000 C 33.020 276.000,33.200 276.360,33.200 276.800 C 33.200 277.240,33.380 277.600,33.600 277.600 C 33.820 277.600,34.000 277.960,34.000 278.400 C 34.000 278.840,34.180 279.200,34.400 279.200 C 34.620 279.200,34.800 279.472,34.800 279.805 C 34.800 280.443,35.051 281.037,36.152 283.000 C 36.522 283.660,37.131 284.875,37.506 285.700 C 37.882 286.525,38.326 287.200,38.494 287.200 C 38.662 287.200,38.800 287.560,38.800 288.000 C 38.800 288.440,38.980 288.800,39.200 288.800 C 39.420 288.800,39.600 289.160,39.600 289.600 C 39.600 290.040,39.780 290.400,40.000 290.400 C 40.220 290.400,40.400 290.670,40.400 291.000 C 40.400 291.330,40.580 291.600,40.800 291.600 C 41.020 291.600,41.200 291.920,41.200 292.312 C 41.200 292.703,41.560 293.283,42.000 293.600 C 42.440 293.917,42.800 294.497,42.800 294.888 C 42.800 295.280,42.980 295.600,43.200 295.600 C 43.420 295.600,43.600 295.947,43.600 296.371 C 43.600 296.796,43.870 297.413,44.200 297.743 C 44.530 298.073,44.800 298.433,44.800 298.543 C 44.800 298.653,45.520 299.827,46.400 301.152 C 47.280 302.477,48.000 303.750,48.000 303.981 C 48.000 304.211,48.138 304.400,48.306 304.400 C 48.474 304.400,49.056 305.120,49.600 306.000 C 50.144 306.880,50.726 307.600,50.894 307.600 C 51.062 307.600,51.200 307.830,51.200 308.112 C 51.200 308.393,51.560 308.883,52.000 309.200 C 52.440 309.517,52.800 310.025,52.800 310.328 C 52.800 310.631,53.340 311.383,54.000 312.000 C 54.660 312.617,55.200 313.333,55.200 313.592 C 55.200 313.851,55.920 314.754,56.800 315.600 C 57.680 316.446,58.400 317.340,58.400 317.587 C 58.400 317.834,58.805 318.465,59.300 318.988 C 59.795 319.512,60.740 320.581,61.400 321.364 C 63.830 324.248,81.144 341.600,81.590 341.600 C 81.844 341.600,82.929 342.500,84.000 343.600 C 85.071 344.700,86.140 345.600,86.374 345.600 C 86.608 345.600,87.541 346.320,88.448 347.200 C 89.355 348.080,90.252 348.800,90.441 348.800 C 90.631 348.800,91.284 349.249,91.893 349.797 C 94.261 351.931,95.420 352.799,95.900 352.800 C 96.175 352.800,96.400 352.947,96.400 353.126 C 96.400 353.306,97.120 353.857,98.000 354.352 C 98.880 354.847,99.600 355.420,99.600 355.626 C 99.600 355.832,99.846 356.000,100.146 356.000 C 100.446 356.000,101.165 356.372,101.742 356.826 C 102.320 357.280,102.974 357.540,103.196 357.402 C 103.864 356.990,103.661 356.622,102.475 356.097 C 101.856 355.824,101.001 355.285,100.575 354.900 C 100.149 354.515,99.305 353.945,98.700 353.632 C 98.095 353.320,97.600 352.915,97.600 352.732 C 97.600 352.550,97.361 352.400,97.069 352.400 C 96.515 352.400,90.699 348.113,90.467 347.533 C 90.393 347.350,90.093 347.200,89.800 347.200 C 89.507 347.200,89.207 347.058,89.133 346.885 C 89.060 346.712,88.198 345.947,87.218 345.185 C 86.239 344.423,84.867 343.260,84.171 342.600 C 82.525 341.039,81.246 340.000,80.971 340.000 C 80.557 340.000,64.164 323.401,63.194 322.000 C 62.662 321.230,61.545 319.939,60.713 319.131 C 59.881 318.324,59.200 317.546,59.200 317.403 C 59.200 317.260,58.975 316.914,58.700 316.635 C 58.425 316.355,57.750 315.526,57.200 314.792 C 56.109 313.336,54.335 311.118,54.006 310.800 C 53.893 310.690,53.620 310.309,53.400 309.952 C 51.892 307.511,49.005 303.377,48.731 303.267 C 48.549 303.193,48.400 302.912,48.400 302.642 C 48.400 302.372,48.085 301.802,47.700 301.375 C 47.315 300.949,46.730 300.060,46.400 299.400 C 46.070 298.740,45.485 297.851,45.100 297.425 C 44.715 296.998,44.400 296.413,44.400 296.125 C 44.400 295.836,44.220 295.600,44.000 295.600 C 43.780 295.600,43.600 295.240,43.600 294.800 C 43.600 294.360,43.420 294.000,43.200 294.000 C 42.980 294.000,42.800 293.730,42.800 293.400 C 42.800 293.070,42.620 292.800,42.400 292.800 C 42.180 292.800,42.000 292.530,42.000 292.200 C 42.000 291.870,41.820 291.600,41.600 291.600 C 41.380 291.600,41.200 291.240,41.200 290.800 C 41.200 290.360,41.054 290.000,40.875 290.000 C 40.696 290.000,40.302 289.370,40.000 288.600 C 39.698 287.830,39.338 287.200,39.200 287.200 C 39.062 287.200,38.702 286.570,38.400 285.800 C 38.098 285.030,37.710 284.400,37.538 284.400 C 37.366 284.400,37.330 284.128,37.457 283.795 C 37.585 283.462,37.507 282.967,37.284 282.695 C 36.763 282.057,33.200 275.036,33.200 274.645 C 33.200 274.482,32.750 273.365,32.200 272.163 C 31.650 270.960,31.200 269.712,31.200 269.388 C 31.200 269.065,30.930 268.800,30.600 268.800 C 30.270 268.800,30.000 269.149,30.000 269.576 M371.423 271.962 C 371.277 272.199,371.334 272.710,371.551 273.097 C 371.926 273.764,371.961 273.762,372.226 273.073 C 372.549 272.236,371.851 271.270,371.423 271.962 M370.694 274.239 C 370.563 274.371,370.550 274.726,370.666 275.029 C 370.783 275.332,370.589 275.869,370.235 276.222 C 369.882 276.575,369.695 277.030,369.820 277.232 C 370.213 277.869,370.699 277.634,370.921 276.700 C 371.039 276.205,371.261 275.395,371.414 274.900 C 371.673 274.067,371.252 273.681,370.694 274.239 M369.154 278.300 C 369.129 278.465,369.140 278.915,369.179 279.300 C 369.218 279.685,369.059 280.000,368.825 280.000 C 368.591 280.000,368.400 280.360,368.400 280.800 C 368.400 281.240,368.580 281.600,368.800 281.600 C 369.020 281.600,369.200 281.240,369.200 280.800 C 369.200 280.360,369.341 280.000,369.513 280.000 C 369.685 280.000,369.863 279.550,369.908 279.000 C 369.980 278.135,369.279 277.485,369.154 278.300 M367.600 283.000 C 367.600 283.550,367.420 284.000,367.200 284.000 C 366.980 284.000,366.800 284.360,366.800 284.800 C 366.800 285.240,366.620 285.600,366.400 285.600 C 366.180 285.600,366.000 285.960,366.000 286.400 C 366.000 286.840,366.180 287.200,366.400 287.200 C 366.620 287.200,366.800 286.840,366.800 286.400 C 366.800 285.960,366.980 285.600,367.200 285.600 C 367.420 285.600,367.600 285.240,367.600 284.800 C 367.600 284.360,367.780 284.000,368.000 284.000 C 368.220 284.000,368.400 283.550,368.400 283.000 C 368.400 282.450,368.220 282.000,368.000 282.000 C 367.780 282.000,367.600 282.450,367.600 283.000 M365.200 288.400 C 365.200 288.840,365.020 289.200,364.800 289.200 C 364.580 289.200,364.400 289.560,364.400 290.000 C 364.400 290.440,364.220 290.800,364.000 290.800 C 363.780 290.800,363.600 291.160,363.600 291.600 C 363.600 292.040,363.420 292.400,363.200 292.400 C 362.980 292.400,362.800 292.760,362.800 293.200 C 362.800 293.640,362.620 294.000,362.400 294.000 C 362.180 294.000,362.000 294.360,362.000 294.800 C 362.000 295.240,361.820 295.600,361.600 295.600 C 361.380 295.600,361.200 295.960,361.200 296.400 C 361.200 296.840,361.020 297.200,360.800 297.200 C 360.580 297.200,360.400 297.470,360.400 297.800 C 360.400 298.130,360.220 298.400,360.000 298.400 C 359.780 298.400,359.600 298.760,359.600 299.200 C 359.600 299.640,359.420 300.000,359.200 300.000 C 358.980 300.000,358.800 300.270,358.800 300.600 C 358.800 300.930,358.980 301.200,359.200 301.200 C 359.420 301.200,359.600 300.930,359.600 300.600 C 359.600 300.270,359.746 300.000,359.925 300.000 C 360.104 300.000,360.498 299.370,360.800 298.600 C 361.102 297.830,361.496 297.200,361.675 297.200 C 361.854 297.200,362.000 296.840,362.000 296.400 C 362.000 295.960,362.180 295.600,362.400 295.600 C 362.620 295.600,362.800 295.240,362.800 294.800 C 362.800 294.360,362.980 294.000,363.200 294.000 C 363.420 294.000,363.600 293.640,363.600 293.200 C 363.600 292.760,363.780 292.400,364.000 292.400 C 364.220 292.400,364.400 292.040,364.400 291.600 C 364.400 291.160,364.580 290.800,364.800 290.800 C 365.020 290.800,365.200 290.440,365.200 290.000 C 365.200 289.560,365.380 289.200,365.600 289.200 C 365.820 289.200,366.000 288.840,366.000 288.400 C 366.000 287.960,365.820 287.600,365.600 287.600 C 365.380 287.600,365.200 287.960,365.200 288.400 M358.000 302.200 C 358.000 302.530,357.820 302.800,357.600 302.800 C 357.380 302.800,357.200 303.070,357.200 303.400 C 357.200 303.730,357.020 304.000,356.800 304.000 C 356.580 304.000,356.400 304.278,356.400 304.617 C 356.400 304.956,356.040 305.620,355.600 306.092 C 355.160 306.564,354.800 307.187,354.800 307.475 C 354.800 307.764,354.620 308.000,354.400 308.000 C 354.180 308.000,354.000 308.180,354.000 308.400 C 354.000 309.860,356.500 307.082,357.331 304.700 C 357.465 304.315,357.771 304.000,358.011 304.000 C 358.251 304.000,358.344 303.832,358.217 303.628 C 358.091 303.423,358.170 303.142,358.393 303.004 C 358.918 302.680,358.923 301.600,358.400 301.600 C 358.180 301.600,358.000 301.870,358.000 302.200 M353.060 310.038 C 352.666 310.499,352.435 310.968,352.547 311.081 C 352.660 311.193,352.403 311.660,351.976 312.118 C 351.549 312.576,351.200 313.147,351.200 313.387 C 351.200 313.627,350.840 314.083,350.400 314.400 C 349.960 314.717,349.600 315.207,349.600 315.488 C 349.600 315.770,349.420 316.000,349.200 316.000 C 348.980 316.000,348.800 316.230,348.800 316.512 C 348.800 316.793,348.440 317.283,348.000 317.600 C 347.560 317.917,347.200 318.380,347.200 318.629 C 347.200 318.878,346.660 319.646,346.000 320.337 C 345.340 321.028,344.800 321.774,344.800 321.996 C 344.800 322.218,344.620 322.400,344.400 322.400 C 344.180 322.400,344.000 322.598,344.000 322.840 C 344.000 323.081,343.497 323.756,342.881 324.340 C 342.266 324.923,341.457 325.844,341.083 326.386 C 338.725 329.810,325.119 343.421,321.573 345.904 C 321.038 346.278,320.060 347.106,319.400 347.742 C 318.740 348.379,317.570 349.328,316.800 349.852 C 316.030 350.376,314.590 351.433,313.600 352.202 C 312.610 352.971,311.530 353.726,311.200 353.880 C 310.870 354.034,310.251 354.484,309.825 354.880 C 309.398 355.276,308.853 355.600,308.613 355.600 C 308.373 355.600,307.917 355.960,307.600 356.400 C 307.283 356.840,306.786 357.200,306.495 357.200 C 306.204 357.200,305.580 357.560,305.108 358.000 C 304.636 358.440,304.013 358.800,303.725 358.800 C 303.436 358.800,303.200 358.980,303.200 359.200 C 303.200 359.420,302.930 359.600,302.600 359.600 C 302.270 359.600,302.000 359.780,302.000 360.000 C 302.000 360.220,301.730 360.400,301.400 360.400 C 301.070 360.400,300.800 360.546,300.800 360.725 C 300.800 360.904,300.170 361.298,299.400 361.600 C 298.630 361.902,298.000 362.262,298.000 362.400 C 298.000 362.538,297.370 362.898,296.600 363.200 C 295.830 363.502,295.200 363.896,295.200 364.075 C 295.200 364.254,294.840 364.400,294.400 364.400 C 293.960 364.400,293.600 364.546,293.600 364.725 C 293.600 364.904,292.970 365.298,292.200 365.600 C 291.430 365.902,290.800 366.296,290.800 366.475 C 290.800 366.654,290.547 366.800,290.238 366.800 C 289.929 366.800,288.984 367.149,288.138 367.576 C 287.292 368.003,285.880 368.652,285.000 369.018 C 282.960 369.866,280.003 371.184,279.105 371.644 C 278.723 371.840,278.138 372.000,277.805 372.000 C 277.472 372.000,277.200 372.270,277.200 372.600 C 277.200 373.398,277.714 373.357,279.694 372.400 C 280.605 371.960,281.586 371.600,281.875 371.600 C 282.164 371.600,282.400 371.420,282.400 371.200 C 282.400 370.980,282.715 370.801,283.100 370.803 C 283.876 370.806,292.122 366.789,292.333 366.305 C 292.407 366.137,292.812 366.000,293.233 366.000 C 293.655 366.000,294.000 365.820,294.000 365.600 C 294.000 365.380,294.278 365.200,294.617 365.200 C 294.956 365.200,295.620 364.840,296.092 364.400 C 296.564 363.960,297.187 363.600,297.475 363.600 C 297.764 363.600,298.000 363.420,298.000 363.200 C 298.000 362.980,298.360 362.800,298.800 362.800 C 299.240 362.800,299.600 362.620,299.600 362.400 C 299.600 362.180,299.920 362.000,300.312 362.000 C 300.703 362.000,301.283 361.640,301.600 361.200 C 301.917 360.760,302.497 360.400,302.888 360.400 C 303.280 360.400,303.600 360.220,303.600 360.000 C 303.600 359.780,303.870 359.600,304.200 359.600 C 304.530 359.600,304.800 359.420,304.800 359.200 C 304.800 358.980,305.023 358.800,305.297 358.800 C 305.786 358.800,309.698 356.280,310.729 355.302 C 311.019 355.026,311.379 354.797,311.529 354.794 C 311.678 354.790,312.409 354.250,313.154 353.594 C 313.899 352.937,314.656 352.400,314.836 352.400 C 315.016 352.400,315.614 351.950,316.164 351.400 C 316.714 350.850,317.352 350.400,317.582 350.400 C 317.812 350.400,318.000 350.220,318.000 350.000 C 318.000 349.780,318.198 349.600,318.440 349.600 C 318.681 349.600,319.383 349.060,320.000 348.400 C 320.617 347.740,321.227 347.200,321.356 347.200 C 321.485 347.200,321.979 346.885,322.452 346.500 C 323.262 345.842,323.688 345.402,325.476 343.381 C 325.874 342.931,326.830 342.125,327.600 341.590 C 328.370 341.055,329.369 340.253,329.821 339.809 C 330.272 339.364,331.172 338.543,331.821 337.985 C 332.469 337.427,333.720 336.151,334.600 335.149 C 335.480 334.148,337.137 332.265,338.283 330.964 C 341.547 327.259,342.399 326.220,342.400 325.940 C 342.400 325.797,342.985 325.060,343.700 324.301 C 346.046 321.812,347.200 320.392,347.200 319.993 C 347.200 319.777,347.380 319.600,347.600 319.600 C 347.820 319.600,348.000 319.370,348.000 319.088 C 348.000 318.807,348.360 318.317,348.800 318.000 C 349.240 317.683,349.600 317.143,349.600 316.800 C 349.600 316.457,349.960 315.917,350.400 315.600 C 350.840 315.283,351.200 314.827,351.200 314.587 C 351.200 314.347,351.515 313.802,351.900 313.375 C 352.285 312.949,352.855 312.105,353.168 311.500 C 353.480 310.895,353.885 310.400,354.068 310.400 C 354.250 310.400,354.400 310.130,354.400 309.800 C 354.400 308.964,353.905 309.052,353.060 310.038 M103.600 357.487 C 103.600 358.053,104.505 358.800,105.192 358.800 C 105.539 358.800,106.083 359.160,106.400 359.600 C 106.717 360.040,107.297 360.400,107.688 360.400 C 108.080 360.400,108.400 360.580,108.400 360.800 C 108.400 361.020,108.678 361.200,109.017 361.200 C 109.356 361.200,110.020 361.560,110.492 362.000 C 110.964 362.440,111.587 362.800,111.875 362.800 C 112.164 362.800,112.400 362.980,112.400 363.200 C 112.400 363.420,112.670 363.600,113.000 363.600 C 113.330 363.600,113.600 363.780,113.600 364.000 C 113.600 364.220,113.960 364.400,114.400 364.400 C 114.840 364.400,115.200 364.580,115.200 364.800 C 115.200 365.020,115.560 365.200,116.000 365.200 C 116.440 365.200,116.800 365.380,116.800 365.600 C 116.800 365.820,117.160 366.000,117.600 366.000 C 118.040 366.000,118.400 366.180,118.400 366.400 C 118.400 366.620,118.760 366.800,119.200 366.800 C 119.640 366.800,120.000 366.980,120.000 367.200 C 120.000 367.420,120.360 367.600,120.800 367.600 C 121.240 367.600,121.600 367.780,121.600 368.000 C 121.600 368.220,121.960 368.400,122.400 368.400 C 122.840 368.400,123.200 368.580,123.200 368.800 C 123.200 369.020,123.560 369.200,124.000 369.200 C 124.440 369.200,124.800 369.380,124.800 369.600 C 124.800 369.820,125.160 370.000,125.600 370.000 C 126.040 370.000,126.400 370.180,126.400 370.400 C 126.400 370.620,126.749 370.800,127.176 370.800 C 127.603 370.800,128.064 370.980,128.200 371.200 C 128.336 371.420,128.797 371.600,129.224 371.600 C 129.651 371.600,130.000 371.780,130.000 372.000 C 130.000 372.220,130.330 372.400,130.733 372.400 C 131.137 372.400,131.590 372.523,131.741 372.674 C 132.203 373.136,134.927 373.969,135.274 373.755 C 135.946 373.339,135.565 372.800,134.600 372.800 C 134.050 372.800,133.600 372.620,133.600 372.400 C 133.600 372.180,133.328 372.000,132.995 372.000 C 132.662 372.000,132.032 371.820,131.595 371.600 C 131.158 371.380,130.433 371.014,129.984 370.786 C 129.535 370.559,128.994 370.480,128.781 370.612 C 128.568 370.743,128.286 370.569,128.154 370.225 C 128.022 369.881,127.574 369.600,127.157 369.600 C 126.741 369.600,126.400 369.420,126.400 369.200 C 126.400 368.980,126.124 368.800,125.787 368.800 C 125.449 368.800,124.285 368.350,123.200 367.800 C 122.115 367.250,120.951 366.800,120.613 366.800 C 120.276 366.800,120.000 366.620,120.000 366.400 C 120.000 366.180,119.640 366.000,119.200 366.000 C 118.760 366.000,118.400 365.854,118.400 365.675 C 118.400 365.496,117.770 365.102,117.000 364.800 C 116.230 364.498,115.600 364.104,115.600 363.925 C 115.600 363.746,115.240 363.600,114.800 363.600 C 114.360 363.600,114.000 363.420,114.000 363.200 C 114.000 362.980,113.640 362.800,113.200 362.800 C 112.760 362.800,112.400 362.620,112.400 362.400 C 112.400 362.180,112.130 362.000,111.800 362.000 C 111.470 362.000,111.200 361.820,111.200 361.600 C 111.200 361.380,110.930 361.200,110.600 361.200 C 110.270 361.200,110.000 361.020,110.000 360.800 C 110.000 360.580,109.640 360.400,109.200 360.400 C 108.760 360.400,108.400 360.220,108.400 360.000 C 108.400 359.780,108.130 359.600,107.800 359.600 C 107.470 359.600,107.200 359.420,107.200 359.200 C 107.200 358.980,106.930 358.800,106.600 358.800 C 106.270 358.800,106.000 358.641,106.000 358.447 C 106.000 358.252,105.685 357.982,105.300 357.846 C 104.915 357.711,104.375 357.495,104.100 357.366 C 103.825 357.238,103.600 357.292,103.600 357.487 M274.800 373.161 C 274.470 373.334,273.797 373.684,273.305 373.938 C 272.813 374.192,272.048 374.400,271.605 374.400 C 271.162 374.400,270.800 374.580,270.800 374.800 C 270.800 375.020,270.350 375.200,269.800 375.200 C 269.250 375.200,268.800 375.380,268.800 375.600 C 268.800 375.820,268.260 376.000,267.600 376.000 C 266.940 376.000,266.400 376.180,266.400 376.400 C 266.400 376.620,265.860 376.800,265.200 376.800 C 264.540 376.800,264.000 376.980,264.000 377.200 C 264.000 377.420,264.540 377.600,265.200 377.600 C 265.860 377.600,266.400 377.420,266.400 377.200 C 266.400 376.980,266.940 376.800,267.600 376.800 C 268.260 376.800,268.800 376.620,268.800 376.400 C 268.800 376.180,269.250 376.000,269.800 376.000 C 270.350 376.000,270.800 375.844,270.800 375.654 C 270.800 375.464,271.565 375.203,272.500 375.075 C 274.384 374.815,276.800 373.746,276.800 373.171 C 276.800 372.727,275.639 372.722,274.800 373.161 M135.696 374.100 C 135.786 374.375,136.701 374.765,137.730 374.967 C 138.758 375.169,139.600 375.484,139.600 375.667 C 139.600 375.850,140.140 376.000,140.800 376.000 C 141.460 376.000,142.000 376.180,142.000 376.400 C 142.000 376.620,142.439 376.800,142.976 376.800 C 143.513 376.800,144.064 376.980,144.200 377.200 C 144.336 377.420,144.887 377.600,145.424 377.600 C 145.961 377.600,146.400 377.780,146.400 378.000 C 146.400 378.220,146.929 378.400,147.576 378.400 C 148.223 378.400,148.864 378.580,149.000 378.800 C 149.136 379.020,149.867 379.200,150.624 379.200 C 151.381 379.200,152.000 379.380,152.000 379.600 C 152.000 379.820,152.529 380.000,153.176 380.000 C 153.823 380.000,154.464 380.180,154.600 380.400 C 154.736 380.620,155.467 380.800,156.224 380.800 C 156.981 380.800,157.600 380.980,157.600 381.200 C 157.600 381.420,158.320 381.600,159.200 381.600 C 160.080 381.600,160.800 381.780,160.800 382.000 C 160.800 382.220,161.610 382.400,162.600 382.400 C 163.590 382.400,164.400 382.580,164.400 382.800 C 164.400 383.020,165.300 383.200,166.400 383.200 C 167.500 383.200,168.400 383.380,168.400 383.600 C 168.400 383.820,169.390 384.000,170.600 384.000 C 171.810 384.000,172.800 383.820,172.800 383.600 C 172.800 383.196,171.405 383.003,169.639 383.163 C 169.110 383.210,168.544 383.034,168.382 382.770 C 168.219 382.507,167.301 382.293,166.343 382.294 C 165.384 382.296,164.473 382.099,164.318 381.855 C 164.164 381.612,163.309 381.432,162.418 381.455 C 161.528 381.478,160.800 381.341,160.800 381.149 C 160.800 380.957,160.080 380.800,159.200 380.800 C 158.320 380.800,157.600 380.620,157.600 380.400 C 157.600 380.180,156.970 380.000,156.200 380.000 C 155.430 380.000,154.800 379.820,154.800 379.600 C 154.800 379.380,154.170 379.200,153.400 379.200 C 152.630 379.200,152.000 379.020,152.000 378.800 C 152.000 378.580,151.370 378.400,150.600 378.400 C 149.830 378.400,149.200 378.220,149.200 378.000 C 149.200 377.780,148.660 377.600,148.000 377.600 C 147.340 377.600,146.800 377.420,146.800 377.200 C 146.800 376.980,146.260 376.800,145.600 376.800 C 144.940 376.800,144.400 376.620,144.400 376.400 C 144.400 376.180,143.860 376.000,143.200 376.000 C 142.540 376.000,142.000 375.820,142.000 375.600 C 142.000 375.380,141.561 375.200,141.024 375.200 C 140.487 375.200,139.936 375.020,139.800 374.800 C 139.664 374.580,139.113 374.400,138.576 374.400 C 138.039 374.400,137.600 374.220,137.600 374.000 C 137.600 373.780,137.135 373.600,136.567 373.600 C 135.920 373.600,135.594 373.787,135.696 374.100 M261.200 378.000 C 261.200 378.220,260.570 378.400,259.800 378.400 C 259.030 378.400,258.400 378.580,258.400 378.800 C 258.400 379.020,257.770 379.200,257.000 379.200 C 256.230 379.200,255.600 379.380,255.600 379.600 C 255.600 379.820,254.880 380.000,254.000 380.000 C 253.120 380.000,252.400 380.180,252.400 380.400 C 252.400 380.620,251.680 380.800,250.800 380.800 C 249.920 380.800,249.200 380.980,249.200 381.200 C 249.200 381.420,249.909 381.600,250.776 381.600 C 251.643 381.600,252.464 381.420,252.600 381.200 C 252.736 380.980,253.456 380.800,254.200 380.800 C 254.944 380.800,255.664 380.620,255.800 380.400 C 255.936 380.180,256.566 380.000,257.200 380.000 C 257.834 380.000,258.464 379.820,258.600 379.600 C 258.736 379.380,259.377 379.200,260.024 379.200 C 260.671 379.200,261.200 379.020,261.200 378.800 C 261.200 378.580,261.740 378.400,262.400 378.400 C 263.060 378.400,263.600 378.220,263.600 378.000 C 263.600 377.780,263.060 377.600,262.400 377.600 C 261.740 377.600,261.200 377.780,261.200 378.000 M245.946 381.755 C 245.367 382.057,244.124 382.315,243.185 382.328 C 242.246 382.341,241.343 382.568,241.180 382.833 C 241.010 383.107,240.494 383.213,239.981 383.079 C 238.886 382.793,236.800 383.167,236.800 383.650 C 236.800 384.138,240.696 384.091,241.000 383.600 C 241.136 383.380,242.126 383.200,243.200 383.200 C 244.274 383.200,245.264 383.020,245.400 382.800 C 245.536 382.580,246.357 382.400,247.224 382.400 C 248.820 382.400,249.326 381.887,248.167 381.443 C 247.295 381.108,247.145 381.129,245.946 381.755 M173.500 383.826 C 172.798 384.545,173.341 384.800,175.576 384.800 C 176.883 384.800,178.064 384.980,178.200 385.200 C 178.512 385.704,184.400 385.732,184.400 385.229 C 184.400 384.734,180.324 384.243,179.193 384.602 C 178.663 384.770,178.186 384.701,178.020 384.432 C 177.685 383.891,173.929 383.387,173.500 383.826 M231.900 383.876 C 230.318 384.289,231.369 384.800,233.800 384.800 C 236.269 384.800,237.147 384.372,235.767 383.843 C 235.067 383.574,232.986 383.592,231.900 383.876 M225.700 384.682 C 223.734 385.061,224.967 385.600,227.800 385.600 C 230.614 385.600,231.611 385.197,230.167 384.643 C 229.485 384.381,227.157 384.402,225.700 384.682 M185.600 385.558 C 184.721 385.803,184.689 385.871,185.333 386.118 C 186.381 386.521,194.311 386.467,194.565 386.056 C 194.984 385.379,187.697 384.974,185.600 385.558 M215.500 385.491 C 212.197 385.837,214.242 386.400,218.800 386.400 C 223.267 386.400,224.825 386.021,222.700 385.452 C 221.762 385.201,218.086 385.221,215.500 385.491 M197.600 386.358 C 195.613 386.912,197.945 387.200,204.409 387.200 C 210.264 387.200,212.495 386.840,210.296 386.251 C 209.078 385.925,198.846 386.011,197.600 386.358 " stroke="none" fill="#aacce7" fill-rule="evenodd"></path></g></svg>